<svg id="Capa_1" data-name="Capa 1" xmlns="http://www.w3.org/2000/svg" viewBox="0 0 1200 1200"><defs><style>.cls-1{fill:#002753;}.cls-2{fill:#00387c;}.cls-3{fill:#cf0008;}</style></defs><g id="_01" data-name=" 01"><g id="_01-2" data-name=" 01-2"><path id="Trazado_17445" data-name="Trazado 17445" class="cls-1" d="M959.28,776.38a9.14,9.14,0,1,0,.08,0Zm0,16.66a7.57,7.57,0,1,1,7.35-7.79v.19a7.34,7.34,0,0,1-7.09,7.59Z"/><path id="Trazado_17446" data-name="Trazado 17446" class="cls-1" d="M960.74,786.09a2.68,2.68,0,0,0,2.71-2.66,1.2,1.2,0,0,0,0-.19c0-2.07-1.2-3-3.7-3h-4V790.7h1.58v-4.53h1.83l2.76,4.53h1.78l-3-4.62Zm-3.39-1.26V781.6h2.16c1.1,0,2.28.21,2.28,1.53,0,1.6-1.18,1.7-2.52,1.7Z"/><path id="Trazado_17447" data-name="Trazado 17447" class="cls-1" d="M554.86,433.64a26.81,26.81,0,0,1,12,3c6.18,2.93,13.41,6.3,22.48,10.68,0,0,14.61-10.41,15.39-11a7.7,7.7,0,0,1,10.81,1.35,6.86,6.86,0,0,1,.53.76,278.62,278.62,0,0,1,20.82,51.2,5.76,5.76,0,0,1-3.79,7.11,79.29,79.29,0,0,1-9.55,1.6c-5.3.65-5.2,5-5.2,7.53V538a19.5,19.5,0,0,1-19.64,19.34l-.79,0h-39a26.83,26.83,0,0,1-26.7-25.7V455.4a22.58,22.58,0,0,1,22.63-21.86Z"/><path id="Trazado_17448" data-name="Trazado 17448" class="cls-1" d="M493.16,557.44H366.36v14.08H515.14a74.54,74.54,0,0,0,5.4-26.24V449.69A22.82,22.82,0,0,1,539.09,426l1.31-.27a195.27,195.27,0,0,1,114.71,10.07c4.58,2.24,5.63-1.42,5.49-3a47,47,0,0,0-45.82-47.45A79.68,79.68,0,0,0,571.87,396a1.31,1.31,0,0,1-1.58-.5,63.39,63.39,0,0,0-24.9-14.16,1.49,1.49,0,0,1,.09-2.95,200.11,200.11,0,0,1,51.74,1.51c1.95.34,3.43-.8,2.65-2.6-.62-1.38-1.09-2-2.08-4.09a23,23,0,0,0-14.4-11,329.28,329.28,0,0,0-76.62-9.58,364.75,364.75,0,0,0-71.95,7.87c-2,.42-4.75,1.14-5.26,1.21-2.26.46-2.79,2.61-1.8,3.65.59.66,2.32,2.1,3.13,3.11a3.43,3.43,0,0,1-.25,4.83l-.2.17-57.35,51.49h39.67a5.18,5.18,0,0,1,.19,10.34H361.67l-15.61,14.19h67.11a5.16,5.16,0,0,1,0,10.26H334.63L319,473.82H454.22A5.22,5.22,0,0,1,459,479a4.88,4.88,0,0,1-4.54,5.21H319.05v14.08H454.12A5.12,5.12,0,0,1,459,503.6a5.2,5.2,0,0,1-4.95,4.9H319v14.16H495.28a5,5,0,0,1,4.71,5.27V528a5,5,0,0,1-4.69,4.9H366.42v14.2H495.87c2.36,0,4.42,2.95,4.42,5.33a5.08,5.08,0,0,1-4.48,5Z"/><path id="Trazado_17449" data-name="Trazado 17449" class="cls-1" d="M413.73,606.12v14.43s19.06.06,29.93,0A76.64,76.64,0,0,0,488,606.12Z"/><path id="Trazado_17450" data-name="Trazado 17450" class="cls-1" d="M413.73,581.84V596H499.8a78.92,78.92,0,0,0,10.42-14.08H413.74Z"/><path id="Trazado_17451" data-name="Trazado 17451" class="cls-1" d="M951.92,741.14a2.35,2.35,0,0,0-.07-.68,47.77,47.77,0,0,0-8-24.48,56.69,56.69,0,0,0-79.52-10.12A57.7,57.7,0,0,0,854.21,716a48,48,0,0,0-8,24.48c0,.26-.06.45-.07.68a48.49,48.49,0,0,0,40.19,55.56,49.06,49.06,0,0,0,7.16.61c1.9.15,3.72.23,5.53.21s3.66,0,5.55-.21a48.49,48.49,0,0,0,47.33-56.17Zm-50.43,41.27-2.44.14a14.68,14.68,0,0,1-2.44-.14A21.41,21.41,0,0,1,885,777.79a25.42,25.42,0,0,1-2.78-2.71A40.78,40.78,0,0,1,874.16,753c-1.42-17.15,2-42.23,23.05-43.91.54,0,1,0,1.6,0h.48c.52,0,1,0,1.56,0,21.09,1.68,24.52,26.75,23.1,43.91a39.39,39.39,0,0,1-8.1,22.12,29.53,29.53,0,0,1-2.77,2.71,21.82,21.82,0,0,1-11.6,4.62Z"/><path id="Trazado_17452" data-name="Trazado 17452" class="cls-1" d="M742.44,717.49c0-7.84.76-21.63.76-21.63H717.33s.78,13.79.78,21.63L718.05,774c0,7.86-.73,21.2-.73,21.2h25.87s-.69-13.34-.69-21.2l-.06-56.52Z"/><path id="Trazado_17453" data-name="Trazado 17453" class="cls-1" d="M591.57,779.83h-18c-.25-10-.36-19.63-.38-28.38l-.06-1.37h0v-.23H603v-14H573.18c.07-15.14.36-25.08.36-25.08h37V695.86c-25.86.09-63.26,0-63.26,0s.55,13.71.55,21.56v56.41c0,7.17-.44,19.38-.53,21.38H613l.07-15.76s-12.94.41-21.56.41Z"/><path id="Trazado_17454" data-name="Trazado 17454" class="cls-1" d="M160.94,779.83h-18c-.24-10-.35-19.63-.39-28.38v-1.37h0v-.23h29.83v-14H142.58c.08-15.14.35-25.08.35-25.08h37V695.86c-25.88.09-63.25,0-63.25,0s.55,13.71.55,21.56v56.41c0,7.17-.45,19.38-.53,21.38h65.68l.05-15.76s-12.93.41-21.55.41Z"/><path id="Trazado_17455" data-name="Trazado 17455" class="cls-1" d="M676.11,741.77l28.5-45.91H684.86l-.14.44c-6,10.32-13.44,22.83-16.41,27.42l-1.14,1.84-16.53-29.69H621l28.62,51.41-29.82,47.93H639.4c12.69-21.75,19.27-31.73,19.27-31.73l17.7,31.73H706l-29.85-53.44Z"/><path id="Trazado_17456" data-name="Trazado 17456" class="cls-1" d="M823,781.7a33.74,33.74,0,0,1-35-32.49,34.88,34.88,0,0,1,.21-5.21c.56-18.12,8.82-33.52,28.57-34.84a70.62,70.62,0,0,1,24.34,3.64l-1.08-15.52a90.33,90.33,0,0,0-21.86-3.36,57,57,0,0,0-43,13.44,52.57,52.57,0,0,0-16.79,37.86,50.21,50.21,0,0,0,18.17,39.32,59,59,0,0,0,41.32,12.79,87,87,0,0,0,26.4-3.42l-1.47-15.24a62.53,62.53,0,0,1-19.81,3Z"/><path id="Trazado_17457" data-name="Trazado 17457" class="cls-1" d="M491.22,681H520l.81,6.65c6.42,66.36,10.37,107.66,10.37,107.66h-30l-3-41.12-2.76-36.75L470.06,795.2h-16s-8-27.65-9.5-31.49L430,717s-2.25,26-3.1,37.08c-1.76,22.28-3.31,41.15-3.31,41.15H401.24s9.16-92.94,9.85-98.59c.7-5.82,1.79-15.71,1.79-15.71h29.39l24.34,66.91L491.2,681Z"/><path id="Trazado_17458" data-name="Trazado 17458" class="cls-1" d="M389.22,741.23a5.86,5.86,0,0,0-.09-.66,47.29,47.29,0,0,0-8-24.42,56.44,56.44,0,0,0-89.23,0A47.76,47.76,0,0,0,284,740.57c0,.19-.06.42-.06.66A48.29,48.29,0,0,0,331,797.16c1.87.13,3.69.17,5.53.17s3.63,0,5.51-.17a48.26,48.26,0,0,0,47.13-55.93ZM339,782.3a24,24,0,0,1-2.4.12,19.94,19.94,0,0,1-2.44-.12,21.45,21.45,0,0,1-11.55-4.6,26,26,0,0,1-2.78-2.67,40.79,40.79,0,0,1-8-22.06c-1.42-17,2-42,23-43.67.54,0,1.05-.07,1.58-.07a.57.57,0,0,1,.26,0h.22a12.24,12.24,0,0,1,1.59.07c21,1.67,24.41,26.63,23,43.67A39.21,39.21,0,0,1,353.41,775a25,25,0,0,1-2.77,2.67,21.42,21.42,0,0,1-11.54,4.6Z"/><path id="Trazado_17459" data-name="Trazado 17459" class="cls-1" d="M110.52,795.19c-.88-2-6.19-14.64-10.1-24.81L66.83,681H40.69s-7.43,21-8.5,24.43L7.66,774.71C4.47,783.57,0,795.2,0,795.2H21.34s6-19.28,7.28-22.76l3.29-9.62h37l5,14.66c1.07,2.74,5.44,17.49,5.52,17.7ZM37.3,746.57l12.43-37,.74-2.18,13,39.19Z"/><path id="Trazado_17460" data-name="Trazado 17460" class="cls-1" d="M285.23,795.2c-6.18-8.88-8.46-12.55-13.21-19l-17.8-27.67a29.76,29.76,0,0,0,17.84-26.18,25.47,25.47,0,0,0-7.15-19.58,24,24,0,0,0-14.39-6.09c-4.77-.62-8.2-.65-11.06-.82h-42s.49,13.72.49,21.58V773.6c0,7.88-.49,21.6-.49,21.6h25.8s-.76-13.72-.76-21.6l.19-18h9.58l16.32,29.91c2.19,3.81,5.37,8.59,6.12,9.67ZM239.6,739.75a42.44,42.44,0,0,1-16.86,1.19l.33-28.41,2.41-.15a37.34,37.34,0,0,1,16.06,1.51,10.61,10.61,0,0,1,5.82,10.51,14.77,14.77,0,0,1-7.76,15.36Z"/><path id="Trazado_17461" data-name="Trazado 17461" class="cls-2" d="M1158.19,643.31l-1.08-.5.27-.59,2.93,1.32-.28.59-1.08-.49-1.43,3.19-.76-.34,1.43-3.19Z"/><path id="Trazado_17462" data-name="Trazado 17462" class="cls-2" d="M1160.87,643.78l1.2.58-.5,3.26h0l2.27-2.4,1.2.59-1.82,3.73-.71-.36,1.5-3.08h0l-2.51,2.58-.71-.36.5-3.56h0l-1.5,3.07-.71-.35,1.82-3.73Z"/><path id="Trazado_17463" data-name="Trazado 17463" class="cls-2" d="M1169.73,676.09l-.08.1a86.85,86.85,0,0,1-115.53,129.35l-.09.09A86.85,86.85,0,0,0,1172.28,678.4c-.85-.79-1.72-1.56-2.6-2.31Z"/><path id="Trazado_17464" data-name="Trazado 17464" class="cls-2" d="M1015.77,774.84c-2.75,1.54-3.39,3.86-2,7.44,1.31,3.26,3.35,4.67,5.54,3.8,1.75-.7,2-2.21,1.32-6.13l-.32-1.52a15.44,15.44,0,0,1-.36-7.18,5,5,0,0,1,3.14-3.73c3.93-1.57,7.65.84,9.86,6.39,2.38,6,1.1,10.47-3.55,12.41l-1.17-2.92c3.24-1.41,4-4.44,2.33-8.78-1.42-3.55-3.67-5.11-6-4.17-1.9.77-2.36,2.54-1.66,6.56l.27,1.68.26,1.49a12.69,12.69,0,0,1,.28,5.31,4.75,4.75,0,0,1-3,3.4c-3.68,1.48-7.22-.69-9.22-5.68-2.15-5.39-1-9.4,3.15-11.25l1.15,2.88Z"/><path id="Trazado_17465" data-name="Trazado 17465" class="cls-2" d="M1013.32,743.49l13.18-11.1.09,4.1-11.17,9.25,3.62,4,7.83-.18.07,3.22-22.4.5-.07-3.22,8.82-.2h2.36l-.76-.79-.76-.8-9.91-10.7-.1-4.25,9.21,10.19Z"/><path id="Trazado_17466" data-name="Trazado 17466" class="cls-2" d="M1023.23,708.8l8.64,3-1.07,3-8.63-3-15.48,4.67,1.3-3.7,9.61-2.68,1.18-.33c.54-.15,1.08-.27,1.63-.37a23,23,0,0,1-1.72-2.21l-5.93-8,1.23-3.53,9.23,13.14Z"/><path id="Trazado_17467" data-name="Trazado 17467" class="cls-2" d="M1038.39,667.69l-4.73,5.79L1047.79,685l-3.4,4.15-14.13-11.57-4.72,5.76-3.2-2.62,12.85-15.68,3.2,2.62Z"/><path id="Trazado_17468" data-name="Trazado 17468" class="cls-2" d="M1068.62,646.45l-11.31,6.61,2.42,4.12,10.38-6.06,1.94,3.3-10.38,6.07,2.79,4.77,11.52-6.75,2.08,3.57-16.15,9.46-11.33-19.34,16-9.32,2.09,3.57Z"/><path id="Trazado_17469" data-name="Trazado 17469" class="cls-2" d="M1112,655.15l-5.86.37-2.89-4.84-9,1.44-1.27,5.52-5.58,1.44,5.89-24.48,5.51-.88L1112,655.14Zm-12.8-11.55a35.31,35.31,0,0,1-2.41-4.55,46.24,46.24,0,0,1-1,5.09l-.93,4.27,6.51-1-2.21-3.77Z"/><path id="Trazado_17470" data-name="Trazado 17470" class="cls-2" d="M1148,662.31l-4.72-1.79,1.79-6.65c.2-.78.49-1.86.89-3.21s.69-2.5.94-3.3.57-1.84.86-2.8l.54-1.59c-1.32,2.26-1.85,3.06-3.06,4.9-.51.81-1,1.48-1.38,2l-6.35,8.9-4.08-1.07L1132.13,647a23.87,23.87,0,0,1-.22-2.38c-.07-1.41-.16-2.47-.19-3.22s0-1.5,0-2.71l-.55,2.7c-.66,3-1,4.23-1.86,7.75l-1.86,7.21-5-.78,5.62-21.91,7.53,1.46,1.07,10.36a47.48,47.48,0,0,1,.21,7.35,33.19,33.19,0,0,1,2.12-3.71l1.72-2.65,5.9-8.47,7.15,2.43L1148,662.27Z"/><path id="Trazado_17471" data-name="Trazado 17471" class="cls-2" d="M1105.15,705.47c-2.72,2.38-8.1,7.55-13.3,12.54l-5.89,5.64a80.54,80.54,0,0,0-14.45-1.28A38,38,0,0,0,1046,730a7.91,7.91,0,0,0-2.56,5.75c.11,5.27,6.15,7.93,8,8.62a26.21,26.21,0,0,0,26.37-3.4,142.72,142.72,0,0,0,14.82-12.86c3.45.81,7.37,1.82,11.56,3l3.89,1.14c-5,4.92-10.19,10.15-15,14.37l-.36.33a42.13,42.13,0,0,1-18.41,11.65,14.06,14.06,0,0,1-9.52-.65c-.11,0-.27.22-.27.22a17.86,17.86,0,0,0,14.39,4.63,37.73,37.73,0,0,0,20.82-11.37l10-9.78,7-6.92,14.09,4.14.27.07c-.16,0-8.73,8.48-8.73,8.48l-7.49,7.45a145.1,145.1,0,0,1-16.33,14.51,39.56,39.56,0,0,1-19.37,8.37,18.91,18.91,0,0,1-10.55-2,.8.8,0,0,0-.37.16,22.52,22.52,0,0,0,16.42,6.9c9-.24,17-4.59,29.5-16,5.69-5.21,11.33-11,16.32-16.2l9.24-9.38a71.68,71.68,0,0,0,17.58,1.79c8.78-.17,16.27-4.38,16.37-9.17a8,8,0,0,0-4.58-6.58,20.2,20.2,0,0,0-10.79-3.12,32.69,32.69,0,0,0-20.4,8.64l-4.64,4.09-1.7-.47-12.89-3.61c3.8-3.55,7-6.61,10-9.2a35.24,35.24,0,0,1,19.4-9.14,22.78,22.78,0,0,1,11.5,1.76c.11,0,.26-.26.26-.26a23.21,23.21,0,0,0-16.36-6.15,33.65,33.65,0,0,0-20.38,8.21,160.14,160.14,0,0,0-13.09,12.3l-6.52-2-1.58-.5-6.85-2.08c.15,0,3.91-3.68,3.91-3.68,4.61-4.52,9-8.8,12.38-11.67A38.65,38.65,0,0,1,1137,698.6a23.39,23.39,0,0,1,14,3.63c.1,0,.25-.24.25-.24a26.89,26.89,0,0,0-20.56-8.36,41.12,41.12,0,0,0-25.46,11.89Zm-48.58,37.08c-4-.28-6-1.9-6-5,0-.41.27-10.22,22.73-11.34a55.23,55.23,0,0,1,9.79.28,31.18,31.18,0,0,0-2.55,2.18l-1.4,1.27c-5.42,4.91-14.49,13.14-22.59,12.59Zm90.88-8a31,31,0,0,1,15.18-6.57c2,.08,4.35.68,4.35,3.12s-2.39,4.61-7.07,6.28a41.45,41.45,0,0,1-17.27,1.07,43.83,43.83,0,0,1,4.81-3.9Z"/><path id="Trazado_17472" data-name="Trazado 17472" class="cls-3" d="M404,846.57s45.2-36.93,159.31-36.93c86,0,137.53,27.47,238,27.47A357.25,357.25,0,0,0,952.13,806s-53,41.36-159.41,41.36-140.31-27.83-245.4-27.83S404,846.57,404,846.57Z"/></g></g></svg>