<svg id="Capa_1" data-name="Capa 1" xmlns="http://www.w3.org/2000/svg" viewBox="0 0 1200 1200"><defs><style>.cls-1{fill:#d50012;}.cls-1,.cls-2,.cls-3{fill-rule:evenodd;}.cls-2{fill:#002866;}.cls-3{fill:#003b85;}</style></defs><g id="_02" data-name=" 02"><g id="_02-2" data-name=" 02-2"><g id="_09" data-name=" 09"><path id="Trazado_19558" data-name="Trazado 19558" class="cls-1" d="M990.7,549.85l-47,68a40.12,40.12,0,0,1-28.36,18.49v2.1h52.29a38.27,38.27,0,0,0,30.88-19l48.27-69.62Z"/><path id="Trazado_19559" data-name="Trazado 19559" class="cls-2" d="M515,603.75h25.75L527.37,579,515,603.75Zm45.41,34.71-10.12-17.82H506.12L497,638.49H475l44-81h20l49.77,81ZM41.07,603.75H67.51L53.79,579Zm46.68,34.71L77.37,620.64H32l-9.45,17.82H0l45.16-81.05H65.75l51.18,81.05Zm131.73-43.83c9.37,0,13.89-4.77,13.89-10.12s-4-9.78-13.89-9.78H194.3v19.91ZM238.39,608l32.7,30.44H245.83a16.23,16.23,0,0,1-12.21-4.61l-22.25-21.58a2.67,2.67,0,0,0-1.92-.67H194.3v26.9H170.63V557.36h51.29c26.59,0,37.8,12,37.8,25.17A28.77,28.77,0,0,1,238.39,608Zm184.26-13.38c9.36,0,13.89-4.77,13.89-10.12s-4-9.78-13.89-9.78H397.47v19.91ZM441.55,608l32.71,30.44H449a16.22,16.22,0,0,1-12.21-4.61l-22.26-21.58a2.71,2.71,0,0,0-1.92-.67H397.47v26.9H373.8V557.36h51.28c26.6,0,37.81,12,37.81,25.17A28.79,28.79,0,0,1,441.56,608Zm367.2,30.44V557.32h82.14v17.4H832.42v14H890v17.41H832.45V621h58.21v17.4Zm-528.54,0V557.32h79.13v17.4H303.88v20.16h54.21v17.39H303.88v26.22Zm514.23-55a84,84,0,0,0-38.73-9.54c-19.07,0-33.28,9.87-33.28,23.59,0,14,14.47,24,33.12,24a75.79,75.79,0,0,0,39.65-10.87v20.06a92.61,92.61,0,0,1-40.66,9.2c-32.45,0-58-16.55-58-42.4,0-25.43,26-41.74,57.88-41.74a106.52,106.52,0,0,1,40,7.45v20.29Zm-123.7,55-56.87-48.18v48.22h-20V557.36h17L667,604.79V557.36h20v81.13Zm-522.26,0H124.81V557.32h23.67v81.13Z"/><path id="Trazado_19560" data-name="Trazado 19560" class="cls-3" d="M1179.85,563.36h-.08a57.6,57.6,0,0,1-76.56,85.81l-.06.08A57.6,57.6,0,0,0,1200,607.63v-.38c0-1.33,0-2.71-.14-4.13a57.5,57.5,0,0,0-20-39.79Z"/><path id="Trazado_19561" data-name="Trazado 19561" class="cls-3" d="M1077.78,628.86c-1.85,1-2.25,2.56-1.29,4.95.86,2.14,2.19,3.08,3.67,2.49,1.17-.44,1.35-1.47.88-4.07l-.22-1a10.41,10.41,0,0,1-.25-4.74,3.38,3.38,0,0,1,2.1-2.46c2.58-1,5.07.59,6.55,4.24,1.56,3.92.72,6.93-2.38,8.19l-.76-1.93c2.15-.91,2.68-2.94,1.52-5.82-.93-2.29-2.4-3.35-4-2.74-1.26.53-1.56,1.67-1.07,4.35l.17,1.13.16,1a8.21,8.21,0,0,1,.19,3.52,3.09,3.09,0,0,1-2,2.23c-2.44,1-4.79-.47-6.14-3.73-1.42-3.59-.64-6.27,2.13-7.48l.76,1.9Z"/><path id="Trazado_19562" data-name="Trazado 19562" class="cls-3" d="M1076.17,608.08l8.73-7.4v2.73l-7.4,6.16,2.39,2.64,5.24-.1v2.13l-14.88.33v-2.14l5.82-.09h1.56l-.49-.53-.5-.54-6.55-7.09-.08-2.82,6.12,6.76Z"/><path id="Trazado_19563" data-name="Trazado 19563" class="cls-3" d="M1082.73,585.05l5.71,2-.7,2-5.72-2-10.24,3.1.83-2.45,6.36-1.77.78-.22c.32-.1.54-.14,1.09-.28a9.9,9.9,0,0,1-1.13-1.45l-3.92-5.31.78-2.36,6.14,8.73Z"/><path id="Trazado_19564" data-name="Trazado 19564" class="cls-3" d="M1092.74,557.76l-3.15,3.85,9.37,7.68-2.25,2.74-9.36-7.68-3.13,3.83-2.14-1.74,8.53-10.41,2.13,1.73Z"/><path id="Trazado_19565" data-name="Trazado 19565" class="cls-3" d="M1112.83,543.71l-7.5,4.38,1.56,2.74,6.91-4,1.28,2.21-6.89,4,1.88,3.14,7.59-4.48,1.43,2.4-10.72,6.24-7.5-12.8,10.56-6.2,1.41,2.39Z"/><path id="Trazado_19566" data-name="Trazado 19566" class="cls-3" d="M1133.06,541.82a19.64,19.64,0,0,1-1.61-3,22.51,22.51,0,0,1-.64,3.37l-.6,2.81,4.31-.64-1.46-2.51Zm8.48,7.63-3.9.28-1.89-3.22-6,1-.82,3.67-3.68.94,3.88-16.24,3.69-.58,8.74,14.19Z"/><path id="Trazado_19567" data-name="Trazado 19567" class="cls-3" d="M1165.4,554.25l-3.11-1.17,1.2-4.43c.1-.52.3-1.21.57-2.14s.45-1.65.59-2.19.39-1.2.6-1.85l.34-1c-.87,1.5-1.22,2-2,3.23-.32.54-.67,1-.9,1.35l-4.2,5.94-2.71-.74-.86-7.1a10.42,10.42,0,0,1-.13-1.58c-.07-.92-.11-1.64-.13-2.14a10.82,10.82,0,0,1,0-1.8l-.38,1.8c-.43,2-.65,2.8-1.22,5.13l-1.22,4.78-3.29-.5,3.7-14.52,5,1,.7,6.88a30.59,30.59,0,0,1,.15,4.88,22.93,22.93,0,0,1,1.4-2.46c.46-.67.83-1.24,1.17-1.75l3.89-5.61,4.75,1.62-3.85,14.46Z"/><path id="Trazado_19568" data-name="Trazado 19568" class="cls-3" d="M1165.05,602.2a20.29,20.29,0,0,1,10.08-4.36c1.3,0,2.88.41,2.88,2s-1.61,3.06-4.69,4.17a27.36,27.36,0,0,1-11.49.72,36.37,36.37,0,0,1,3.22-2.58Zm-60.25,5.25c-2.66-.18-3.94-1.25-3.94-3.31,0-.26.17-6.79,15.08-7.51a37.56,37.56,0,0,1,6.45.17,18.93,18.93,0,0,0-1.66,1.45l-1,.86c-3.58,3.25-9.58,8.72-15,8.34Zm32.22-24.6c-1.8,1.59-5.36,5-8.79,8.3l-4,3.77a51.76,51.76,0,0,0-9.54-.86,25.05,25.05,0,0,0-16.88,5.1,5.11,5.11,0,0,0-1.7,3.8c.07,3.49,4.1,5.28,5.3,5.73a17.4,17.4,0,0,0,17.49-2.28,94.81,94.81,0,0,0,9.81-8.54c2.28.52,4.85,1.22,7.69,2.06l2.56.72c-3.36,3.3-6.77,6.78-9.94,9.55l-.25.23a28.22,28.22,0,0,1-12.18,7.73,9.51,9.51,0,0,1-6.31-.44l-.18.13a11.8,11.8,0,0,0,9.51,3.09,24.77,24.77,0,0,0,13.82-7.56l6.6-6.45,4.63-4.61,9.34,2.75.17.06-5.77,5.61-5,4.93a98,98,0,0,1-10.85,9.61,26.28,26.28,0,0,1-12.81,5.55,12.67,12.67,0,0,1-7-1.35.39.39,0,0,0-.26.09,14.89,14.89,0,0,0,10.88,4.58,30.72,30.72,0,0,0,19.58-10.63c3.76-3.46,7.49-7.36,10.79-10.74l6.13-6.25a46.7,46.7,0,0,0,11.66,1.23c5.8-.13,10.78-2.91,10.83-6.12a5.29,5.29,0,0,0-3-4.36,13.21,13.21,0,0,0-7.15-2.1,21.85,21.85,0,0,0-13.53,5.73l-3.05,2.76-1.14-.33-8.53-2.43c2.52-2.32,4.64-4.35,6.58-6a23.1,23.1,0,0,1,12.85-6.1A15.65,15.65,0,0,1,1173,590l.17-.16a15.51,15.51,0,0,0-10.86-4.07,22,22,0,0,0-13.47,5.43,95.7,95.7,0,0,0-8.66,8.18l-4.34-1.34-1-.35-4.53-1.37,2.58-2.43c3.07-3,5.92-5.87,8.19-7.77a25.92,25.92,0,0,1,16.94-7.83,15.79,15.79,0,0,1,9.32,2.41l.13-.16a17.76,17.76,0,0,0-13.61-5.54,27.13,27.13,0,0,0-16.87,7.9Z"/><path id="Trazado_19569" data-name="Trazado 19569" class="cls-3" d="M1173.8,543c.28.16.76.49,1,.12s-.14-.47-.41-.61l-.64-.34-.32.59.41.23Zm.31,2-.39-.21-.08-1.46-.41-.2-.59,1.07-.29-.19,1.24-2.34,1,.55c.42.25.76.57.49,1.1a.73.73,0,0,1-1,.3l-.09-.06.08,1.44Zm1.46-.7a2.12,2.12,0,0,0-.82-2.81,2.06,2.06,0,0,0-2.11,3.54l.11.06A2.09,2.09,0,0,0,1175.57,544.34Zm-4.06-2a2.38,2.38,0,0,1,3.13-1.27l.06,0a2.42,2.42,0,1,1-3.19,1.25Z"/></g></g></g></svg>