<svg id="Capa_1" data-name="Capa 1" xmlns="http://www.w3.org/2000/svg" viewBox="0 0 1200 1200"><defs><style>.cls-1{fill:#002f67;}.cls-2{fill:#db2f1f;}.cls-3,.cls-4{fill:#8f0026;}.cls-4{fill-rule:evenodd;}</style></defs><g id="_04" data-name=" 04"><g id="_04-2" data-name=" 04-2"><g id="_08" data-name=" 08"><g id="Grupo_208" data-name="Grupo 208"><path id="Trazado_19543" data-name="Trazado 19543" class="cls-1" d="M323,528.08h-4.9V674.33h59a118,118,0,0,0,25.14-2.44,64.32,64.32,0,0,0,19.38-7.43,57.88,57.88,0,0,0,14.94-13.53,69.8,69.8,0,0,0,11-21.36,92.93,92.93,0,0,0,4.23-29.1,89.54,89.54,0,0,0-6.25-34.32,61.06,61.06,0,0,0-19.27-25.32,58.05,58.05,0,0,0-24-10.69,141.08,141.08,0,0,0-27.68-2Zm51.24,26a81.22,81.22,0,0,1,24,2.51,32.88,32.88,0,0,1,16.29,13.49,54.46,54.46,0,0,1,6.87,30.11,73,73,0,0,1-3.64,24.58,37.73,37.73,0,0,1-9.66,15.28,29.57,29.57,0,0,1-11.53,6,81.08,81.08,0,0,1-21.83,2.3H347.71V554.1Z"/><path id="Trazado_19544" data-name="Trazado 19544" class="cls-1" d="M323,669.43V533h51.63a138.67,138.67,0,0,1,26.68,1.95,53.13,53.13,0,0,1,22,9.78A55.81,55.81,0,0,1,441.08,568,84.13,84.13,0,0,1,447,600.46,87.28,87.28,0,0,1,443,628a64.67,64.67,0,0,1-10.23,19.87,52.45,52.45,0,0,1-13.64,12.38,59,59,0,0,1-17.89,6.84,112,112,0,0,1-24.08,2.32Zm19.79-16.2h32a85.34,85.34,0,0,0,23.23-2.51,34.2,34.2,0,0,0,13.43-7.06,42.33,42.33,0,0,0,11-17.23,77.25,77.25,0,0,0,3.94-26.25,58.83,58.83,0,0,0-7.71-32.84A37.91,37.91,0,0,0,400,552a84.83,84.83,0,0,0-25.62-2.79H342.9Z"/><path id="Trazado_19545" data-name="Trazado 19545" class="cls-1" d="M633.72,528.08H537V674.33H641.86v-26h-77V611.69h68.76v-26H564.86v-31.6h73.8v-26Z"/><path id="Trazado_19546" data-name="Trazado 19546" class="cls-1" d="M541.91,669.43V533h91.81v16.19h-73.8v41.41h68.77v16.19H559.92v46.46h77v16.2Z"/><path id="Trazado_19547" data-name="Trazado 19547" class="cls-1" d="M760.44,528.08h-22.9V674.33H832.3v-26h-67V528.08Z"/><path id="Trazado_19548" data-name="Trazado 19548" class="cls-1" d="M742.42,669.43V533h18V653.23h67v16.2Z"/><path id="Trazado_19549" data-name="Trazado 19549" class="cls-1" d="M995.11,528.08H882.2v26h45V674.33H955V554.08h45v-26Z"/><path id="Trazado_19550" data-name="Trazado 19550" class="cls-1" d="M932.11,669.43V549.18h-45V533h108v16.19h-45V669.43Z"/><path id="Trazado_19551" data-name="Trazado 19551" class="cls-1" d="M1131.66,528.08h-23.33l-62,146.25h29.55l14.81-41.4h62.61l15.55,41.4H1200l-65-146.25Zm-10,35.21,4.76,14.06,11.68,31h-32.42l12.55-33.29h0c1.42-3.8,2.22-7.85,3.4-11.78Z"/><path id="Trazado_19552" data-name="Trazado 19552" class="cls-1" d="M1053.41,669.43,1111.7,533h20l61.11,136.45h-20.53L1156.74,628h-69.46l-14.81,41.4Zm45.16-56.16h46.58L1131,575.66q-6.33-17.25-9.72-28.64a172.09,172.09,0,0,1-7.66,26.33Z"/></g><g id="Grupo_209" data-name="Grupo 209"><path id="Trazado_19553" data-name="Trazado 19553" class="cls-2" d="M0,669.41,107,507.79V621.36Z"/><path id="Trazado_19554" data-name="Trazado 19554" class="cls-2" d="M107,642.54v49.67H.37Z"/><path id="Trazado_19555" data-name="Trazado 19555" class="cls-3" d="M214,669.41,107,507.79V621.36Z"/><path id="Trazado_19556" data-name="Trazado 19556" class="cls-3" d="M107,642.54v49.67H213.65Z"/><path id="Trazado_19557" data-name="Trazado 19557" class="cls-4" d="M230,669.35a6.41,6.41,0,1,0-6.42-6.43,6.41,6.41,0,0,0,6.42,6.43Zm0-1.22a5.2,5.2,0,1,1,5.19-5.21h0a5.19,5.19,0,0,1-5.18,5.2Zm1.51-4.62c1.23-.09,1.89-.61,1.89-1.88a2,2,0,0,0-.81-1.81,3.89,3.89,0,0,0-1.88-.3h-3.34v6.89h1.33v-2.9h1.37l1.54,2.9h1.58l-1.69-2.89Zm-2.81-1v-2h1.69c.68,0,1.67,0,1.67.92s-.55,1.06-1.31,1Z"/></g></g></g></g></svg>