<svg id="Capa_1" data-name="Capa 1" xmlns="http://www.w3.org/2000/svg" viewBox="0 0 1200 1200"><defs><style>.cls-1{fill:#004a8d;}</style></defs><g id="_04" data-name=" 04"><g id="_04-2" data-name=" 04-2"><path id="Trazado_25190" data-name="Trazado 25190" class="cls-1" d="M549.55,530.35h33c5.76,12.38,53.26,114.85,53.26,114.85H605.68l-12.47-26.79H538.49l-12.1,26.82H496.08Zm34.23,67.09-17.72-39.35-17.92,39.35Z"/><path id="Trazado_25191" data-name="Trazado 25191" class="cls-1" d="M939.72,556a39.63,39.63,0,0,0-28.44,10.05l-1.59-8.3H883.94a50.94,50.94,0,0,1,2.72,14v73.4h25.5V594.41c0-13.81,8.43-20.86,27.59-20.86,10.52,0,16.92,3.5,16.92,20.86v50.77h25.46V594.41C982.1,568.33,973.67,556,939.72,556Z"/><path id="Trazado_25192" data-name="Trazado 25192" class="cls-1" d="M1054.26,556.31c-43.36,0-53,20.37-53,45.27,0,25.12,9.46,45.48,55.15,45.48a186.56,186.56,0,0,0,35.89-3.85c.67-4.41,2.14-14.1,2.64-17.41a281.31,281.31,0,0,1-38.52,3.88c-21.19,0-26.93-8.06-28.64-19.3h73.38v-8.8C1101.12,570.17,1084.39,556.31,1054.26,556.31Zm-26.52,36.48c1.5-10.87,6.38-19.1,26.52-19.1A19.21,19.21,0,0,1,1075.18,591c0,.58.08,1.16.08,1.75Z"/><path id="Trazado_25193" data-name="Trazado 25193" class="cls-1" d="M193.63,556.24c-31.84,0-53.06,14-53.06,45.45,0,31.62,21.22,45.47,53.06,45.47s53-13.85,53-45.47C246.67,570.28,225.48,556.24,193.63,556.24Zm0,73.56c-21.29,0-27.58-10.55-27.58-28.12,0-17.32,6.29-27.88,27.58-27.88s27.58,10.56,27.58,27.88C221.21,619.25,214.84,629.8,193.63,629.8Z"/><path id="Trazado_25194" data-name="Trazado 25194" class="cls-1" d="M477,584.16c0-17.6-18.88-28.13-46.66-28.13a134.46,134.46,0,0,0-38,7.64c-.59,3.72-2.41,15.27-2.76,17.7a209.34,209.34,0,0,1,40.77-7.77c13.95,0,21.19,4.75,21.19,11.61v7.49S434.42,591,428.25,591c-27.78,0-44.59,10-44.59,28.09,0,22.86,25.31,27.91,38.19,27.91a44.88,44.88,0,0,0,30.79-8.57l1.46,6.84h25.55A51.85,51.85,0,0,1,477,629.6ZM451.55,612c0,16.16-15.42,17.57-29.72,17.57-4.87,0-12.66-1-12.66-10.54,0-6.31,8.62-10.53,19.06-10.53h23.31Z"/><path id="Trazado_25195" data-name="Trazado 25195" class="cls-1" d="M69.52,527c29.86,0,48.49,9.39,58.77,24.32h0l-26.7,10.27a36.13,36.13,0,0,0-31.7-13.6h-.7a36.36,36.36,0,0,0-31.37,12.94h0a42.35,42.35,0,0,0-7.92,25.6h0v1.68h0a43.49,43.49,0,0,0,7.93,25.33h0A36.41,36.41,0,0,0,69.18,626.4h.71a36.22,36.22,0,0,0,31.41-13.15h0l27,10.31C118,638.21,99.16,647.19,69.66,647.19h-.15c-26.25,0-43.9-6.94-54.69-18.85h0A59.23,59.23,0,0,1,0,587.58H0v-1.07a59,59,0,0,1,14.8-40.42h0C25.61,534.21,43.24,527,69.53,527Z"/><path id="Trazado_25196" data-name="Trazado 25196" class="cls-1" d="M810.22,631.38v-101H784.73v101a44.54,44.54,0,0,0,2.67,13.85h25.5A46.73,46.73,0,0,1,810.22,631.38Z"/><path id="Trazado_25197" data-name="Trazado 25197" class="cls-1" d="M725.07,594.24c.1-13.52,10-20.64,27.57-20.64,2.9,0,14.43,1.52,19.39,2.1-.29-2.24-2.06-13.17-2.79-17.59a111.59,111.59,0,0,0-16.6-2.08,39.78,39.78,0,0,0-28,9.64l-2.16-7.89H696.91a49.37,49.37,0,0,1,2.69,13.83v73.58h25.48Z"/><path id="Trazado_25198" data-name="Trazado 25198" class="cls-1" d="M318.83,556.13a51.59,51.59,0,0,0-28.24,9.32s-1.36-5.18-1.91-7.55H263.05a57.26,57.26,0,0,1,2.69,15.8v99.35h25.48V638.49a47.22,47.22,0,0,0,27.61,8.57c42.67,0,48.83-20.34,48.83-45.47C367.69,576.66,361.53,556.13,318.83,556.13Zm0,73.56c-21.69,0-27.61-12.3-27.61-28.11.41-16.83,5.93-27.88,27.61-27.88,19.55,0,23.38,12.29,23.38,27.88,0,15.81-3.81,28.07-23.38,28.07Z"/><path id="Trazado_25199" data-name="Trazado 25199" class="cls-1" d="M1193,560.71v19.82a67.77,67.77,0,0,0-15.6-6.07,65.67,65.67,0,0,0-16.27-2,32.94,32.94,0,0,0-13.72,2.2,7,7,0,0,0-4.62,6.55q0,6.18,19.83,10.06l1,.24,7.76,1.55a43.63,43.63,0,0,1,21.73,9.47A23.27,23.27,0,0,1,1200,620.2a22.22,22.22,0,0,1-10.5,20.12,59.79,59.79,0,0,1-31.63,6.71,138.23,138.23,0,0,1-19.18-1.37,156.63,156.63,0,0,1-19.91-4V621.82a92.77,92.77,0,0,0,18.31,6.5,74.31,74.31,0,0,0,18,2.28,34.84,34.84,0,0,0,14.46-2.35,7.28,7.28,0,0,0,4.9-6.74,7.64,7.64,0,0,0-3.48-6.66,57.11,57.11,0,0,0-16.54-5l-7.5-1.39a47.76,47.76,0,0,1-22.71-9.2,21.32,21.32,0,0,1-7.12-16.81,22,22,0,0,1,10.85-19.51,56.13,56.13,0,0,1,30.47-7,130.58,130.58,0,0,1,17.56,1.18A116.52,116.52,0,0,1,1193,560.71Z"/><path id="Trazado_25200" data-name="Trazado 25200" class="cls-1" d="M861.15,631.38V557.74H835.68v73.64a42.63,42.63,0,0,0,2.77,13.85h25.39A47.39,47.39,0,0,1,861.15,631.38Zm-12.82-80.32a20.32,20.32,0,0,0,11.35-2.26,9.65,9.65,0,0,0,3-8.22,9.44,9.44,0,0,0-2.95-8,20.12,20.12,0,0,0-11.24-2.23,19.75,19.75,0,0,0-11.4,2.31,9.93,9.93,0,0,0-3,8.27,9.39,9.39,0,0,0,2.89,7.9,20.28,20.28,0,0,0,11.37,2.23Z"/><path id="Trazado_25201" data-name="Trazado 25201" class="cls-1" d="M674.06,631.38V557.74H648.59v73.64a42.07,42.07,0,0,0,2.78,13.85h25.39A47.73,47.73,0,0,1,674.06,631.38Zm-12.8-80.32a20.29,20.29,0,0,0,11.34-2.26,9.65,9.65,0,0,0,3.06-8.22,9.44,9.44,0,0,0-2.95-8,20.13,20.13,0,0,0-11.25-2.23,19.86,19.86,0,0,0-11.41,2.31,9.94,9.94,0,0,0-3,8.27,9.39,9.39,0,0,0,2.88,7.9,20.4,20.4,0,0,0,11.37,2.23Z"/></g></g></svg>