<svg id="Capa_1" data-name="Capa 1" xmlns="http://www.w3.org/2000/svg" viewBox="0 0 1200 1200"><defs><style>.cls-1{fill:#005099;}.cls-2{fill:#5daadc;}</style></defs><g id="_03" data-name=" 03"><g id="_03-2" data-name=" 03-2"><g id="Grupo_249" data-name="Grupo 249"><g id="Grupo_248" data-name="Grupo 248"><path id="Trazado_25179" data-name="Trazado 25179" class="cls-1" d="M275.94,569.43a24.85,24.85,0,0,1,6-17.38,21.61,21.61,0,0,1,30.55-.61l.62.61a24.94,24.94,0,0,1,6,17.38V684.64a24.9,24.9,0,0,1-6,17.37,21.71,21.71,0,0,1-30.7.47c-.16-.15-.32-.31-.47-.47a24.8,24.8,0,0,1-6-17.37Z"/><path id="Trazado_25180" data-name="Trazado 25180" class="cls-1" d="M343.19,569.42a24.79,24.79,0,0,1,6-17.39,20.11,20.11,0,0,1,15.63-6.64,20.53,20.53,0,0,1,13.52,4.26,18.49,18.49,0,0,1,6.33,11.77,40.25,40.25,0,0,1,16.41-13.18,63,63,0,0,1,25.46-4.5,70.25,70.25,0,0,1,23.65,3.92A51.59,51.59,0,0,1,469,559a53.94,53.94,0,0,1,12.35,18.28,63.18,63.18,0,0,1,4.5,24.57v82.73a24.7,24.7,0,0,1-6,17.37,21.7,21.7,0,0,1-30.67.49l-.49-.49a24.8,24.8,0,0,1-6-17.37v-75.2a28.16,28.16,0,0,0-8.33-22.48,29.78,29.78,0,0,0-20.18-7.22,25.55,25.55,0,0,0-20.77,8.53,32,32,0,0,0-7.13,21.17v75.21a24.8,24.8,0,0,1-6,17.37,21.7,21.7,0,0,1-30.69.48c-.16-.15-.32-.32-.48-.48a24.8,24.8,0,0,1-6-17.37Z"/><path id="Trazado_25181" data-name="Trazado 25181" class="cls-1" d="M520.51,584.79h-9.63A17.57,17.57,0,0,1,492,568.71a19.27,19.27,0,0,1,0-2.74,18.18,18.18,0,0,1,5.42-13.43,18.45,18.45,0,0,1,13.51-5.36h9.62V521.33a25,25,0,0,1,6-17.41,21.68,21.68,0,0,1,30.64-.53l.53.53a25.06,25.06,0,0,1,6,17.41v25.85H576a25.43,25.43,0,0,1,14.56,4.17A20.25,20.25,0,0,1,591,580l-.48.49A24.62,24.62,0,0,1,576,584.79H563.67v99.85a25,25,0,0,1-6,17.44,21.7,21.7,0,0,1-30.69.48l-.48-.48a25,25,0,0,1-6-17.44Z"/><path id="Trazado_25182" data-name="Trazado 25182" class="cls-1" d="M634.55,641.71a32.61,32.61,0,0,0,14,23.95,48.07,48.07,0,0,0,26.88,7.58,43.42,43.42,0,0,0,15.47-2.69,110,110,0,0,0,13.06-6q6-3.33,11.12-6a19.93,19.93,0,0,1,9.3-2.7,16.24,16.24,0,0,1,12.3,5.88,18.43,18.43,0,0,1,5.42,12.72,19.27,19.27,0,0,1-6.46,13.44A61.76,61.76,0,0,1,719,699.55a111.51,111.51,0,0,1-22.84,8.19,101.77,101.77,0,0,1-24.62,3.15,84.41,84.41,0,0,1-33.21-6.33,75.94,75.94,0,0,1-25.57-17.42,77.55,77.55,0,0,1-16.54-26.28,90.89,90.89,0,0,1-5.89-33.19A89.72,89.72,0,0,1,596,595.94a84.74,84.74,0,0,1,15.87-26.71,76.68,76.68,0,0,1,24.41-18.49,73.91,73.91,0,0,1,63.07.28,81.87,81.87,0,0,1,24.56,18.63A84.83,84.83,0,0,1,739.65,595a74,74,0,0,1,5.55,27.48,20.45,20.45,0,0,1-4.48,14.42,18.86,18.86,0,0,1-14.36,4.81ZM702,612.93a41.29,41.29,0,0,0-10.48-23.82,34.32,34.32,0,0,0-47.46.28,39.3,39.3,0,0,0-10.62,23.54Z"/><path id="Trazado_25183" data-name="Trazado 25183" class="cls-1" d="M759.91,567a19.23,19.23,0,0,1,7-16.2A24.57,24.57,0,0,1,782,545.41a28.15,28.15,0,0,1,14.84,3.76A15.32,15.32,0,0,1,803,563.42h.6a45.64,45.64,0,0,1,13.07-13.48A31.48,31.48,0,0,1,834,545.41,21.16,21.16,0,0,1,855,566.64c0,.63,0,1.26-.09,1.88a13.76,13.76,0,0,1-2.26,8.43,19.81,19.81,0,0,1-5.85,5.08,49.57,49.57,0,0,1-8.26,3.75c-3.1,1.12-6.25,2.34-9.45,3.76-3.21,1.59-6.37,3.14-9.45,4.62a36.79,36.79,0,0,0-8.41,5.57,25.26,25.26,0,0,0-6,7.8A23.74,23.74,0,0,0,803,618.32v66.31A24.91,24.91,0,0,1,797,702a21.72,21.72,0,0,1-30.7.48l-.48-.48a24.9,24.9,0,0,1-6-17.37Z"/><path id="Trazado_25184" data-name="Trazado 25184" class="cls-1" d="M987.61,641.71a32.75,32.75,0,0,0,14,23.95,48,48,0,0,0,26.87,7.58,43.42,43.42,0,0,0,15.47-2.69,108.16,108.16,0,0,0,13.09-6c4-2.22,7.68-4.22,11.1-6a20,20,0,0,1,9.31-2.7,16.25,16.25,0,0,1,12.31,5.88,18.27,18.27,0,0,1,5.41,12.72,19.22,19.22,0,0,1-6.44,13.44,61.7,61.7,0,0,1-16.68,11.66,111.43,111.43,0,0,1-22.83,8.19,101.62,101.62,0,0,1-24.61,3.15,84.15,84.15,0,0,1-33.2-6.33,75.94,75.94,0,0,1-25.57-17.42,77.91,77.91,0,0,1-16.56-26.28,91.53,91.53,0,0,1-5.86-33.19,89.48,89.48,0,0,1,5.69-31.73A85.28,85.28,0,0,1,965,569.23a76.53,76.53,0,0,1,24.41-18.49,73.89,73.89,0,0,1,63.06.28A81.83,81.83,0,0,1,1077,569.65,85,85,0,0,1,1092.76,595a74,74,0,0,1,5.54,27.48,20.46,20.46,0,0,1-4.49,14.42,18.87,18.87,0,0,1-14.34,4.81Zm67.48-28.78a41.31,41.31,0,0,0-10.47-23.82,34.34,34.34,0,0,0-47.47.28,39.25,39.25,0,0,0-10.63,23.54Z"/><path id="Trazado_25185" data-name="Trazado 25185" class="cls-1" d="M1123.82,584.79h-9.61a17.54,17.54,0,0,1-18.91-16.06,17,17,0,0,1,0-2.76,18.23,18.23,0,0,1,5.41-13.43,18.43,18.43,0,0,1,13.51-5.36h9.61V521.33a25,25,0,0,1,6-17.41,21.64,21.64,0,0,1,30.6-.54l.54.54a24.92,24.92,0,0,1,6,17.41v25.85h12.3a25.42,25.42,0,0,1,14.57,4.17,20.25,20.25,0,0,1,.47,28.64c-.15.16-.31.31-.47.47a24.61,24.61,0,0,1-14.57,4.33H1167v99.85a25,25,0,0,1-6,17.44,21.65,21.65,0,0,1-30.62.51l-.52-.51a25,25,0,0,1-6-17.44Z"/><g id="Grupo_247" data-name="Grupo 247"><path id="Trazado_25186" data-name="Trazado 25186" class="cls-2" d="M124.11,567.15V502.6a13.5,13.5,0,0,0-27,0v64.57L71,541.09l-19.6-19.53a13.49,13.49,0,0,0-19.07,19.07L52,560.26l26,26H13.53a13.53,13.53,0,0,0,0,27.06H78l-26,26L38.69,652.68l-6.23,6.23A13.53,13.53,0,1,0,51.61,678l5.75-5.77,13.76-13.81,26.06-26.07v64.52a13.53,13.53,0,1,0,27.05.73c0-.24,0-.49,0-.73V632.38l26,26,13.35,13.35,6.24,6.23A13.53,13.53,0,0,0,189,658.83l-5.77-5.77-13.8-13.75L143.32,613.2h64.57a13.5,13.5,0,0,0,0-27H143.3l26.09-26.09,19.46-19.55a13.49,13.49,0,0,0-19.08-19.07l-19.62,19.62Z"/><path id="Trazado_25188" data-name="Trazado 25188" class="cls-1" d="M169.26,639.33a13.51,13.51,0,1,1-18.62,19.58l-.48-.48-23.84-23.84L105,613.25H41.21a13.51,13.51,0,1,1-1-27,9,9,0,0,1,1,0H105l19.15-19.09,26-26a13.51,13.51,0,0,1,19.58,18.63c-.15.16-.31.32-.48.47l-26,26h36.84a13.51,13.51,0,0,1,0,27H143.24Z"/></g></g></g><path id="Trazado_25189" data-name="Trazado 25189" class="cls-1" d="M880.72,670.68a6.48,6.48,0,0,0,6.56.22,13.74,13.74,0,0,0,4.59-6,26.76,26.76,0,0,0,1.65-7.65c.2-2.7.28-5.17.28-7.38v-86.8a20.86,20.86,0,1,1,41.62,0v89.54a86.06,86.06,0,0,1-4.22,28.88,43.48,43.48,0,0,1-12.65,18.07,49.25,49.25,0,0,1-18.75,9.28,99.17,99.17,0,0,1-23.67.24,63.77,63.77,0,0,1-16.67-5.24,47.21,47.21,0,0,1-13.06-9.68,20.92,20.92,0,0,1-5.27-15.46,18.38,18.38,0,0,1,4.31-11,25,25,0,0,1,5-4,12.61,12.61,0,0,1,6.27-1.51,20.63,20.63,0,0,1,8.2,1.67c2,.83,8,3.48,8,3.48Z"/></g></g></svg>