<svg id="Capa_1" data-name="Capa 1" xmlns="http://www.w3.org/2000/svg" viewBox="0 0 1200 1200"><defs><style>.cls-1{fill:#0089cd;fill-rule:evenodd;}</style></defs><g id="_02" data-name=" 02"><path id="Trazado_25151" data-name="Trazado 25151" class="cls-1" d="M292.67,585.91V558.05H133.09v27.86Z"/><path id="Trazado_25152" data-name="Trazado 25152" class="cls-1" d="M131.87,506.47a21.35,21.35,0,1,0,.06,0Z"/><path id="Trazado_25153" data-name="Trazado 25153" class="cls-1" d="M184.94,505.94a21.37,21.37,0,1,0,21.38,21.36h0A21.35,21.35,0,0,0,185,505.94Z"/><path id="Trazado_25154" data-name="Trazado 25154" class="cls-1" d="M237,505.94a21.37,21.37,0,1,0,21.35,21.39v0A21.33,21.33,0,0,0,237,505.94Z"/><path id="Trazado_25155" data-name="Trazado 25155" class="cls-1" d="M291.18,505.94a21.37,21.37,0,1,0,21.34,21.41v-.06A21.36,21.36,0,0,0,291.18,505.94Z"/><path id="Trazado_25156" data-name="Trazado 25156" class="cls-1" d="M217.28,506.92V466.14H205.47v40.78Z"/><path id="Trazado_25157" data-name="Trazado 25157" class="cls-1" d="M39.63,610.8H0V715.74H39.63v-42l41.18,42h48.26L74.24,655.92l44.89-45.11H77.63l-38,38.82V610.81Z"/><path id="Trazado_25158" data-name="Trazado 25158" class="cls-1" d="M132.2,610.8H170v78.69h67.16v26.25h-105V610.8Z"/><path id="Trazado_25159" data-name="Trazado 25159" class="cls-1" d="M337.38,670.61l19.94-59.81h64V715.74H383.55V637l-27.29,78.71H317.45L291.18,637v78.71H252.36V610.8h65.1l19.92,59.81Z"/><path id="Trazado_25160" data-name="Trazado 25160" class="cls-1" d="M232.6,492.61V480.78H191.83v11.83Z"/><path id="Trazado_25161" data-name="Trazado 25161" class="cls-1" d="M539.23,717.61h-7.32V663h25c8.88,0,17.76,3.14,17.76,14.68a13.46,13.46,0,0,1-7.54,13c3.1,1.31,6.19,2.68,6.47,10.27l.46,9.9c.08,3,.46,4.17,2.71,5.46v1.2h-8.94a66.19,66.19,0,0,1-1.28-13.68c0-4.46-.92-9.7-9.64-9.7H539.24v23.42Zm0-29.7h16.91c5.35,0,11-1.37,11-9.45,0-8.42-6.09-9.09-9.71-9.09H539.25v18.54Z"/><path id="Trazado_25162" data-name="Trazado 25162" class="cls-1" d="M600.55,676.73a21.15,21.15,0,1,1-18.29,21,19,19,0,0,1,16.88-20.9C599.61,676.78,600.08,676.75,600.55,676.73Zm0,36.2c9.47,0,11.42-9.88,11.42-15.21s-2-15.21-11.42-15.21-11.45,9.88-11.45,15.21S591,712.93,600.55,712.93Z"/><path id="Trazado_25163" data-name="Trazado 25163" class="cls-1" d="M651,677.85h7.29c-4.59,13-9.11,26-14.13,39-6.24,16.12-6.94,17-15.44,17a10.16,10.16,0,0,1-2.78-.6v-6.1a11.39,11.39,0,0,0,4,.7c3.45,0,3.84-1,7-9.21l-14.62-40.83h7.53l10.46,32.4h.17L651,677.82Z"/><path id="Trazado_25164" data-name="Trazado 25164" class="cls-1" d="M663.77,690c.28-9.5,6.54-13.23,16.27-13.23,3.14,0,14.57.91,14.57,11.1V710.7c0,1.67.85,2.35,2.19,2.35a13.38,13.38,0,0,0,2.19-.27v4.83a11.78,11.78,0,0,1-3.62.78c-5.85,0-6.77-3-7-6.07a17.87,17.87,0,0,1-14.24,6.44,11.37,11.37,0,0,1-12.28-10.37c0-.37,0-.74,0-1.11a11.89,11.89,0,0,1,11.31-12.44l.69,0,10.92-1.37c1.57-.15,3.46-.76,3.46-4.73,0-4.18-3-6.43-9.27-6.43A7.88,7.88,0,0,0,670,689c0,.34-.07.67-.08,1ZM688,697.32c-1.06.85-2.74,1.46-11,2.53-3.22.46-8.39,1.43-8.39,6.44a6.25,6.25,0,0,0,5.45,7,6.38,6.38,0,0,0,1.69,0c6.17,0,12.19-4,12.19-9.36v-6.54Z"/><path id="Trazado_25165" data-name="Trazado 25165" class="cls-1" d="M706,717.61V663h6.64v54.57Z"/><path id="Trazado_25166" data-name="Trazado 25166" class="cls-1" d="M744.67,663h21.89c14.09,0,22.75,10.79,22.75,26.52,0,12.25-5.29,28-23,28h-21.6V663Zm7.3,48.27h14.16c9.45,0,15.63-7.5,15.63-21.29s-6.23-20.65-16.17-20.65H752v41.95Z"/><path id="Trazado_25167" data-name="Trazado 25167" class="cls-1" d="M823.49,717.61v-5.75l-.17-.15a13,13,0,0,1-12.48,7.06,11.65,11.65,0,0,1-12.77-10.41,11.2,11.2,0,0,1,0-1.92V677.85h6.63v26.38c0,6.54,3.28,8.76,7.59,8.76,8.36,0,10.84-7.46,10.84-13.24v-21.9h6.61v39.76Z"/><path id="Trazado_25168" data-name="Trazado 25168" class="cls-1" d="M847.78,683.42v25.85c0,3.11,2.64,3.11,4,3.11h2.3v5.23c-2.38.24-4.27.55-4.94.55-6.55,0-8-3.72-8-8.52V683.42h-5.36v-5.57h5.36V666.78h6.62v11.07h6.3v5.57Z"/><path id="Trazado_25169" data-name="Trazado 25169" class="cls-1" d="M885.17,691.25a8.81,8.81,0,0,0-9.09-8.52h-.25c-8.18,0-10.83,7.9-10.83,15,0,6.85,1.66,15.28,10.75,15.28a10.08,10.08,0,0,0,9.42-9.44h6.41a15.68,15.68,0,0,1-16.06,15.22,17.86,17.86,0,0,1-17.61-19.93c0-12.3,5.88-22.1,18.9-22.1a14.31,14.31,0,0,1,14.78,13.83q0,.35,0,.69Z"/><path id="Trazado_25170" data-name="Trazado 25170" class="cls-1" d="M930.26,717.61h-6.62v-26c0-5.41-1.51-8.89-7.81-8.89-5.45,0-11,3.19-11,13.21v21.66h-6.59V663h6.59v20.13H905a13.92,13.92,0,0,1,11.54-6.45,12.47,12.47,0,0,1,13.75,13.84v27.08Z"/><path id="Trazado_25171" data-name="Trazado 25171" class="cls-1" d="M970.31,701.72l-5.66,15.88h-7.52L977.44,663h8.28l19.56,54.57h-8l-5.34-15.88Zm19-6.54-8-24h-.12l-8.68,24Z"/><path id="Trazado_25172" data-name="Trazado 25172" class="cls-1" d="M1011.31,717.61V677.85h6.61v39.76Zm0-47V663h6.61v7.61Z"/><path id="Trazado_25173" data-name="Trazado 25173" class="cls-1" d="M1035.41,717.61h-6.65V677.85H1035v6.63h.12a12.84,12.84,0,0,1,11.1-7.75,5.2,5.2,0,0,1,1.71.23v6.92h-2.47a10,10,0,0,0-10.1,9.9c0,.25,0,.5,0,.75v23.08Z"/><path id="Trazado_25174" data-name="Trazado 25174" class="cls-1" d="M1053.07,717.61V663h6.63v54.57Z"/><path id="Trazado_25175" data-name="Trazado 25175" class="cls-1" d="M1069.77,717.61V677.85h6.62v39.76Zm0-47V663h6.62v7.61Z"/><path id="Trazado_25176" data-name="Trazado 25176" class="cls-1" d="M1118.39,717.61h-6.63V693.16c0-6.94-2-10.42-8.42-10.42-3.76,0-10.42,2.41-10.42,13.21v21.66h-6.6V677.85h6.24v5.64h.15a14.28,14.28,0,0,1,11.9-6.77,12.5,12.5,0,0,1,13.78,11.07,12.83,12.83,0,0,1,0,2.77v27.05Z"/><path id="Trazado_25177" data-name="Trazado 25177" class="cls-1" d="M1161.6,705.17a17.15,17.15,0,0,1-7,10.85,16.78,16.78,0,0,1-10.69,2.74,17.77,17.77,0,0,1-17.72-17.82,16.49,16.49,0,0,1,.13-2.11c0-12.3,5.86-22.1,18.86-22.1,11.36,0,17,9.12,17,23.17h-28.75c0,8.29,3.82,13.09,11.42,13.09a10,10,0,0,0,10.16-7.82Zm-6.3-10.56c-.4-6.18-3-11.87-11-11.87a11.62,11.62,0,0,0-10.9,11.87Z"/><path id="Trazado_25178" data-name="Trazado 25178" class="cls-1" d="M1192.38,689.19c-.07-2.51-1-6.69-9.34-6.69-2,0-7.82.67-7.82,5.63,0,3.25,2,4,7.15,5.32l6.63,1.67c8.21,2,11,5.09,11,10.47a13.77,13.77,0,0,1-14.24,13.27c-.45,0-.89-.06-1.33-.11-15.58,0-16.7-9.12-17-13.92h6.42c.23,3.11,1.12,8.14,10.46,8.14,4.75,0,9-1.9,9-6.33,0-3.19-2.21-4.23-7.81-5.7l-7.7-1.89c-5.5-1.36-9.09-4.19-9.09-9.67,0-8.72,7.14-12.67,14.87-12.67,14.08,0,15.09,10.49,15.09,12.46Z"/></g></svg>