<svg id="Capa_1" data-name="Capa 1" xmlns="http://www.w3.org/2000/svg" viewBox="0 0 460.35 92.52"><defs><style>.cls-1{fill:1D1D1D;}.cls-2{fill:1D1D1D;}.cls-3{fill:1D1D1D;}.cls-4{fill:1D1D1D;}.cls-5{fill:1D1D1D;}</style></defs><path class="cls-1" d="M143.24,34.13c0-8.69-3.75-16.78-16.76-16.78a29.82,29.82,0,0,0-14.66,3.5l2,6.56a21.93,21.93,0,0,1,10.93-2.94c7.18,0,8.26,4.33,8.26,7v.65c-15-.09-24.11,5-24.11,15.05,0,6,4.58,11.85,12.76,11.85a15.12,15.12,0,0,0,12-5.32h.25l.68,4.43h9.25a62,62,0,0,1-.59-9.56Zm-10,10a6.94,6.94,0,0,1-.32,2.2,8.32,8.32,0,0,1-8,5.5c-3.26,0-5.84-1.81-5.84-5.73,0-6.07,6.93-7.61,14.17-7.46Z"/><path class="cls-1" d="M166.68,34.28c-5.17-1.8-7.09-3-7.09-5.57s2-4.18,5.69-4.18a18.4,18.4,0,0,1,8.57,2.31l2-7.13a24.24,24.24,0,0,0-10.76-2.36c-9.43,0-15.34,5.47-15.34,12.52-.1,4.66,3.24,8.91,11.16,11.6,5,1.74,6.68,3.12,6.68,5.82s-2,4.42-6.49,4.42a23.36,23.36,0,0,1-10.44-2.86l-2,7.28A26.63,26.63,0,0,0,161,59c10.74,0,16.51-5.32,16.51-12.5C177.45,40.58,174,36.89,166.68,34.28Z"/><path class="cls-1" d="M198.55,34.28c-5.17-1.8-7.09-3-7.09-5.57s2-4.18,5.68-4.18a18.43,18.43,0,0,1,8.57,2.31l2-7.13a24.35,24.35,0,0,0-10.79-2.36c-9.39,0-15.32,5.47-15.32,12.52-.09,4.66,3.24,8.91,11.16,11.6,5,1.74,6.67,3.12,6.67,5.82s-2,4.42-6.48,4.42a23.45,23.45,0,0,1-10.45-2.86l-2,7.28A26.58,26.58,0,0,0,192.88,59c10.75,0,16.52-5.32,16.52-12.5C209.31,40.58,205.9,36.89,198.55,34.28Z"/><rect class="cls-1" x="214.88" y="18.24" width="10.33" height="39.85"/><path class="cls-1" d="M220.06,1.65a5.43,5.43,0,0,0-5.75,5.47A5.35,5.35,0,0,0,220,12.53c3.57,0,5.83-2.38,5.83-5.41A5.43,5.43,0,0,0,220.06,1.65Z"/><path class="cls-1" d="M248.83,34.28c-5.18-1.8-7.09-3-7.09-5.57s2-4.18,5.68-4.18A18.48,18.48,0,0,1,256,26.84l2-7.13a24.15,24.15,0,0,0-10.77-2.36c-9.42,0-15.34,5.47-15.34,12.52-.08,4.66,3.25,8.91,11.17,11.6,5,1.74,6.68,3.12,6.68,5.82s-2,4.42-6.51,4.42a23.35,23.35,0,0,1-10.42-2.86l-2,7.28A26.56,26.56,0,0,0,243.16,59c10.77,0,16.5-5.32,16.5-12.5C259.6,40.58,256.16,36.89,248.83,34.28Z"/><path class="cls-1" d="M276.94,8l-10,2.87v7.35h-5.82v7.53h5.82V44.51c0,5.24,1,8.85,3.2,11.13A12.05,12.05,0,0,0,279,59a22.31,22.31,0,0,0,7.41-1l-.18-7.7a12.69,12.69,0,0,1-4,.49c-3.92,0-5.27-2.52-5.27-7.36V25.77h9.76V18.24h-9.76Z"/><rect class="cls-1" x="291.25" y="32.82" width="15.34" height="6.95"/><path class="cls-1" d="M357.27,25.52c4.92,0,7.25,3.92,7.25,10.57v22h10V34.61c0-12.77-6.84-17.26-13.6-17.26a13.75,13.75,0,0,0-8.16,2.36,14.88,14.88,0,0,0-5,5h-.18a11.72,11.72,0,0,0-11.26-7.36,14.06,14.06,0,0,0-12.5,6.8h-.26l-.41-5.91h-8.84c.24,3.44.32,7.28.32,11.87v28h10V34.53a8.41,8.41,0,0,1,.59-3.27c.9-2.79,3.5-5.74,7.32-5.74,4.76,0,7,3.92,7,9.5V58.09h10V34.2a15.21,15.21,0,0,1,.47-3.35A7.87,7.87,0,0,1,357.27,25.52Z"/><path class="cls-1" d="M412.69,49.5a31.11,31.11,0,0,1-11.29,1.81c-6.5,0-12.25-3.11-12.5-10.32h27.19a24,24,0,0,0,.34-4.26c0-8.76-4.25-19.38-17.51-19.38-13,0-19.85,10.38-19.85,21.43C379.07,51,386.83,59,400,59a38.75,38.75,0,0,0,14.19-2.52ZM398.34,24.21c6.84,0,8.48,6.06,8.43,9.74H388.9C389.31,29.87,392,24.21,398.34,24.21Z"/><path class="cls-1" d="M450.6,51.8h.16l.41,6.29h9.18c-.17-2.7-.33-7.11-.33-11.21V0H449.76V22.58h-.18c-1.82-2.95-5.84-5.23-11.42-5.23-9.74,0-18.27,7.94-18.17,21.26C420,50.89,427.67,59,437.33,59,443.24,59,448.18,56.21,450.6,51.8ZM430.41,38.29c0-7.44,3.68-13.16,10.25-13.16a9,9,0,0,1,8.85,7.11,13.65,13.65,0,0,1,.25,2.61v6a11,11,0,0,1-.33,2.94,9,9,0,0,1-8.85,7.11C434.09,50.89,430.41,45.58,430.41,38.29Z"/><path class="cls-2" d="M233.77,84.29c.07,1.74,1.58,2.28,3.17,2.28,1.21,0,2.85-.27,2.85-1.75s-1.91-1.76-3.85-2.19-3.85-1.07-3.85-3.33,2.34-3.35,4.4-3.35c2.6,0,4.67.82,4.83,3.69h-1.94c-.13-1.5-1.46-2-2.73-2s-2.51.32-2.51,1.5c0,1.4,2.05,1.62,3.85,2s3.85,1.08,3.85,3.36c0,2.8-2.62,3.71-5,3.71-2.65,0-4.88-1.07-5-4Z"/><path class="cls-2" d="M249.07,76c3.74,0,5.72,2.71,5.72,6.18s-2,6.15-5.72,6.15-5.72-2.71-5.72-6.15S245.33,76,249.07,76Zm0,10.62c2,0,3.67-1.59,3.67-4.44s-1.64-4.47-3.67-4.47-3.67,1.6-3.67,4.47S247,86.57,249.07,86.57Zm.57-15.22h2.48l-3,3.26h-1.46Z"/><path class="cls-2" d="M257.18,71.73h1.94V88h-1.94Z"/><path class="cls-2" d="M267.21,76c3.74,0,5.72,2.71,5.72,6.18s-2,6.15-5.72,6.15-5.72-2.71-5.72-6.15S263.47,76,267.21,76Zm0,10.62c2,0,3.67-1.59,3.67-4.44s-1.64-4.47-3.67-4.47-3.67,1.6-3.67,4.47S265.18,86.57,267.21,86.57Z"/><path class="cls-2" d="M284.24,76.23h2.34v1.7h-2.34v7.32c0,.89.25,1,1.46,1h.88V88H285.1c-2,0-2.8-.41-2.8-2.58v-7.5h-2v-1.7h2V72.69h1.94Z"/><path class="cls-2" d="M298.78,84.27a4.74,4.74,0,0,1-5,4c-3.76,0-5.54-2.6-5.65-6.2S290.41,76,293.63,76c4.17,0,5.45,3.9,5.33,6.75h-8.82a3.47,3.47,0,0,0,3.67,3.87,2.83,2.83,0,0,0,3.05-2.3ZM296.91,81a3.39,3.39,0,0,0-6.77,0Z"/><path class="cls-2" d="M317.83,92.52H315.9V86.41h0a4,4,0,0,1-3.76,1.87c-3.63,0-5.43-2.87-5.43-6.2S308.44,76,312,76a4.53,4.53,0,0,1,3.81,1.85h0V76.23h1.93Zm-5.47-6c2.6,0,3.6-2.23,3.6-4.44s-1-4.47-3.71-4.47-3.54,2.26-3.54,4.56S309.85,86.57,312.36,86.57Z"/><path class="cls-2" d="M330.57,88h-1.82V86.14h-.05a4.09,4.09,0,0,1-3.82,2.14c-3.11,0-4.06-1.77-4.06-4.31V76.23h1.93v8a2.22,2.22,0,0,0,2.4,2.37c2.35,0,3.48-1.57,3.48-3.69V76.23h1.94Z"/><path class="cls-2" d="M343.54,84.27a4.74,4.74,0,0,1-5,4c-3.76,0-5.54-2.6-5.65-6.2S335.18,76,338.39,76c4.17,0,5.45,3.9,5.33,6.75H334.9a3.47,3.47,0,0,0,3.67,3.87,2.84,2.84,0,0,0,3.06-2.3ZM341.67,81a3.39,3.39,0,0,0-6.77,0Z"/><path class="cls-2" d="M356.26,88h-1.94v-1.6h0a4,4,0,0,1-3.76,1.87c-3.63,0-5.43-2.87-5.43-6.2S346.87,76,350.47,76a4.53,4.53,0,0,1,3.81,1.85h0V71.73h1.94Zm-5.47-1.44c2.6,0,3.6-2.23,3.6-4.44s-1.05-4.47-3.72-4.47-3.53,2.26-3.53,4.56S348.28,86.57,350.79,86.57Z"/><path class="cls-2" d="M369.69,88a2.6,2.6,0,0,1-1.39.32c-1,0-1.65-.54-1.65-1.82a5.24,5.24,0,0,1-4.15,1.82c-2.14,0-3.89-1-3.89-3.3,0-2.67,2-3.24,4-3.63s4-.27,4-1.73c0-1.69-1.39-2-2.62-2-1.64,0-2.85.5-2.94,2.23h-1.94c.12-2.91,2.37-3.94,5-3.94,2.12,0,4.43.48,4.43,3.24v6.06c0,.91,0,1.32.61,1.32a1.7,1.7,0,0,0,.6-.11Zm-3.15-6c-.75.55-2.21.57-3.51.8s-2.37.68-2.37,2.12c0,1.28,1.09,1.73,2.28,1.73,2.55,0,3.6-1.59,3.6-2.67Z"/><path class="cls-2" d="M388.35,88h-1.94v-1.6h0a4,4,0,0,1-3.76,1.87c-3.63,0-5.43-2.87-5.43-6.2S379,76,382.56,76a4.53,4.53,0,0,1,3.81,1.85h0V71.73h1.94Zm-5.47-1.44c2.6,0,3.6-2.23,3.6-4.44s-1.05-4.47-3.71-4.47-3.54,2.26-3.54,4.56S380.37,86.57,382.88,86.57Z"/><path class="cls-2" d="M393.39,74.1h-1.94V71.73h1.94Zm-1.94,2.13h1.94V88h-1.94Z"/><path class="cls-2" d="M397.58,84.29c.07,1.74,1.57,2.28,3.17,2.28,1.21,0,2.85-.27,2.85-1.75s-1.92-1.76-3.85-2.19-3.86-1.07-3.86-3.33,2.35-3.35,4.4-3.35c2.6,0,4.68.82,4.84,3.69h-1.94c-.14-1.5-1.46-2-2.74-2s-2.5.32-2.5,1.5c0,1.4,2.05,1.62,3.85,2s3.85,1.08,3.85,3.36c0,2.8-2.62,3.71-5,3.71-2.65,0-4.88-1.07-5-4Z"/><path class="cls-2" d="M408.59,77.93h-2v-1.7h2V74.47c0-1.92,1.14-2.92,3.26-2.92a5,5,0,0,1,1.26.18v1.69a3.85,3.85,0,0,0-1.1-.16c-.94,0-1.48.3-1.48,1.32v1.65h2.28v1.7h-2.28V88h-1.94Z"/><path class="cls-2" d="M414.47,76.23h1.82v2.48h0A4.28,4.28,0,0,1,420.67,76v2c-3.12,0-4.26,1.78-4.26,4.77V88h-1.94Z"/><path class="cls-2" d="M431.88,88h-1.82V86.14H430a4.09,4.09,0,0,1-3.82,2.14c-3.11,0-4.06-1.77-4.06-4.31V76.23h1.94v8a2.22,2.22,0,0,0,2.39,2.37c2.35,0,3.49-1.57,3.49-3.69V76.23h1.93Z"/><path class="cls-2" d="M437.49,76.23h2.35v1.7h-2.35v7.32c0,.89.25,1,1.46,1h.89V88h-1.48c-2,0-2.81-.41-2.81-2.58v-7.5h-2v-1.7h2V72.69h1.94Z"/><path class="cls-2" d="M452.42,88a2.58,2.58,0,0,1-1.39.32c-1,0-1.64-.54-1.64-1.82a5.24,5.24,0,0,1-4.15,1.82c-2.14,0-3.9-1-3.9-3.3,0-2.67,2-3.24,4-3.63s4-.27,4-1.73c0-1.69-1.39-2-2.63-2-1.64,0-2.84.5-2.93,2.23H441.8c.11-2.91,2.37-3.94,5-3.94,2.12,0,4.42.48,4.42,3.24v6.06c0,.91,0,1.32.62,1.32a1.69,1.69,0,0,0,.59-.11Zm-3.15-6c-.75.55-2.21.57-3.51.8s-2.37.68-2.37,2.12c0,1.28,1.1,1.73,2.28,1.73,2.55,0,3.6-1.59,3.6-2.67Z"/><path class="cls-2" d="M454.15,76.23H456v2.48h0A4.29,4.29,0,0,1,460.35,76v2c-3.12,0-4.26,1.78-4.26,4.77V88h-1.94Z"/><path class="cls-3" d="M79.22,56.05c-.84-.88-1.82-1.8-2.93-2.77l-1-.25c-.91-.23-1.89-.48-2.92-.79-.66-.18-1.32-.39-2-.61-1.75-.57-3.59-1.2-5.5-1.91-1.62-.61-3.29-1.28-5-2-3.24,1.82-6.62,3.63-10.11,5.37l-2.42,1.18.06,0q2.52,1.19,5,2.27c1.12.49,2.23,1,3.31,1.41s2.36,1,3.5,1.4c1.6.62,3.16,1.19,4.66,1.71l.94.32.35.11.74.24.53.18.55.17,1.17.35.09,0,.06,0c2,.6,3.93,1.07,5.6,1.41,1.32.26,2.51.43,3.55.53a16.52,16.52,0,0,0,2.18.05l.41,0,.47,0a4.26,4.26,0,0,0,1.79-.63l.06-.06A1.8,1.8,0,0,0,83,62.31v-.06C83.06,60.84,81.76,58.7,79.22,56.05Z"/><path class="cls-3" d="M17.52,23.51c-.26-.22-.55-.44-.83-.65-.65-.54-1.26-1.06-1.84-1.58a38.32,38.32,0,0,0-5.28-.91c-2.42-.2-4,0-4.86.68a1.75,1.75,0,0,0-.57.68l0,.09L4,22a2.5,2.5,0,0,0-.07.41c0,.07,0,.12,0,.2a1.22,1.22,0,0,0,0,.27s0,.07,0,.1a1.7,1.7,0,0,0,0,.22c0,.06,0,.12,0,.18s0,.1,0,.16l.06.18a.14.14,0,0,1,0,.06C5,26,7.86,29.27,12.55,33.11c.51.42,1,.86,1.6,1.29.71.56,1.45,1.13,2.23,1.7,2.95-2.09,6.2-4.23,9.7-6.36-1.14-.76-2.23-1.51-3.28-2.26Q19.89,25.42,17.52,23.51Z"/><path class="cls-3" d="M39.74,38l-1.33-.75C34.6,39.41,31,41.6,27.78,43.74q2.1,1.27,4.34,2.57c2.08-.94,4.3-2,7.11-3.33,1.58-.75,3.38-1.61,5.15-2.49l-.32-.16C42.63,39.56,41.2,38.81,39.74,38Z"/><path class="cls-4" d="M43.08,54.54l-1.29.59,1.29-.59Z"/><path class="cls-4" d="M39.25,56.25l0,0,.36-.16,0,0Z"/><path class="cls-4" d="M38,56.77l-.08,0,0,0h0l.8-.34-.77.33Z"/><path class="cls-4" d="M52.24,37.53l-.65.37-2.24,1.23c-.7.39-1.38.76-2.06,1.11l0,0h0l0,0-1.59.82-.6.3-2.17,1.1c-1,.52-2,1-3,1.46l-.58.28c-2.26,1.08-4.46,2.07-6.6,3l0,0h0l-1.1.46h0l-.84.36a138.1,138.1,0,0,1-15.67,5.41l-.24.06q-.76.69-1.44,1.35h0a31.81,31.81,0,0,0-2.27,2.46c-1.5,1.83-2.16,3.27-2.1,4.32A1.74,1.74,0,0,0,9.78,63l.08.07L9.77,63h0l.19.13.25.15h0a3.41,3.41,0,0,0,.64.25h0c2.06.6,5.94.24,11.12-1.11a103.58,103.58,0,0,0,13.83-4.74l.51-.2,0,0,.1,0L38,56.77v0h0v0l1.58-.68.13-.06-.09,0,.76-.33.1,0,1.28-.57L39.84,56c1.06-.46,2.14-1,3.24-1.45L45,53.65l-.06,0h0l.07,0,.72-.34,1.08-.53,2.35-1.15.11-.06L50.41,51c1.1-.55,2.18-1.11,3.25-1.67l2.67-1.44,1-.57.05,0,.14-.08h0l1.57-.88L61,45.26l2.05-1.2h0q-2.46-1.61-5.18-3.24T52.24,37.53ZM10.17,63.22l-.2-.11h0l.28.16Z"/><path class="cls-4" d="M88.79,21.79a1.83,1.83,0,0,0-.08-.43,1.83,1.83,0,0,1,.08.43,1.68,1.68,0,0,0-.28-.9h0l0,0-.4-.57h0l0,0-.06,0s0,0,0-.05l-.11-.06h0l-.32-.16h0a3,3,0,0,0-.36-.13l-.48-.13L86,19.7c-.3,0-.62-.06-1-.07h0a23.15,23.15,0,0,0-4.53.35c-1.2.2-2.51.49-3.93.84l-.78.69h0l-.2.17,0,0c-.26.24-.54.47-.82.72l-.86.71,0,0-.38.31-.73.58-.26.21-.8.62-.44.34c-.22.16-.43.33-.66.49l-.22.17c-1.69,1.26-3.53,2.55-5.5,3.86h0c2.15,1.31,4.2,2.61,6.13,3.9h0c1.21.81,2.38,1.61,3.49,2.4l.39.27c.89-.64,1.75-1.27,2.57-1.89l.63-.48.13-.1.25-.19c.47-.37.94-.73,1.38-1.09l.55-.45.87-.73.79-.68.85-.75.47-.43.18-.17.27-.26.2-.19a2.39,2.39,0,0,1,.23-.22,2.28,2.28,0,0,1,.22-.22c.06-.07.13-.13.19-.19L85,28l.14-.14.28-.3.09-.09.33-.36v0l.37-.41.15-.18.1-.12.24-.28c.19-.23.36-.45.52-.67a1.13,1.13,0,0,0,.1-.13l0,0a2.43,2.43,0,0,0,.14-.2,2.14,2.14,0,0,0,.13-.19l.12-.16.08-.14.08-.12.06-.09,0-.07.14-.25,0,0h0l0,0,0,0h0l.13-.26a2,2,0,0,0,.1-.21v-.06A3.52,3.52,0,0,0,88.79,21.79ZM67.23,28.15l.19-.13h0Z"/><path class="cls-1" d="M91.41,18.79c-2.15-3-4.27-6.07-6.39-9.1a2.59,2.59,0,0,0-.79-.75,5.24,5.24,0,0,0-1.8-.67A11.68,11.68,0,0,0,80,8.05h0a26.38,26.38,0,0,0-4.47.43c-.8.13-1.65.3-2.53.49a94.49,94.49,0,0,0-12,3.64c-3.68,1.34-7.65,3-11.8,4.85-1.21.55-2.44,1.12-3.68,1.71h0c-1.12.54-2.26,1.09-3.4,1.66l-.78.39a146.25,146.25,0,0,0-26.63,16c-1.2.87-2.35,1.74-3.43,2.6l-.73.59-1.18,1a49.56,49.56,0,0,0-6.51,6.35,17.91,17.91,0,0,0-1.65,2.31A7.05,7.05,0,0,0,0,53.65,2.8,2.8,0,0,0,.46,55l6.29,9a2.62,2.62,0,0,1-.37-1.24,6.82,6.82,0,0,1,1.23-3.69h0s6.26-8.68,23.73-19.65q1.88-1.17,3.86-2.33l1.54-.9c2.23-1.28,4.54-2.56,6.91-3.81h0A235.24,235.24,0,0,1,68.51,21.27c2.38-.84,4.63-1.56,6.73-2.15l1-.29h0c.67-.18,1.32-.35,2-.5h0l.94-.22h0l1.24-.26.4-.07.31-.06.72-.12c.55-.1,1.08-.18,1.6-.24h0c.29,0,.56-.07.84-.09l.5-.05.36,0,.26,0h1.83l.51,0,.21,0h0l.17,0,.23,0,.16,0,.24.05.13,0,.29.07h0l0,0a5.33,5.33,0,0,1,.64.22l.2.09.14.07.31.17a3.25,3.25,0,0,1,.62.54l.05.06.12.15h0Z"/><path class="cls-5" d="M86.12,45.82l0,0A66.08,66.08,0,0,0,80,40.3,162,162,0,0,0,26.88,11.79h0q-2-.69-4-1.26A54.82,54.82,0,0,0,12.44,8.34c-.68-.06-1.34-.09-2-.09A8,8,0,0,0,5.85,9.32a2.62,2.62,0,0,0-.91,1.14L.85,20.51a2.61,2.61,0,0,1,.52-.69h0l.12-.11.17-.13A4.46,4.46,0,0,1,2.8,19a9.26,9.26,0,0,1,2.68-.47,20.51,20.51,0,0,1,2.78.08c.56,0,1.14.12,1.74.2A98.17,98.17,0,0,1,25.29,23c2.44.88,5,1.88,7.61,3l.1-.06c4.36,1.79,9.2,4,14.38,6.73l-.12.06q2.81,1.44,5.63,3l1.41.79h0A193.59,193.59,0,0,1,81.94,56.09a29.54,29.54,0,0,1,2.59,3h0a8.14,8.14,0,0,1,1.84,4.3h0c0,.07,0,.13,0,.2s0,.07,0,.11a.13.13,0,0,1,0,.06,2.53,2.53,0,0,1-.11.56C87.6,61,89,57.61,90.35,54.23a2.55,2.55,0,0,0,.2-1C90.53,51.25,88.9,48.71,86.12,45.82Z"/></svg>
