<svg id="Capa_1" data-name="Capa 1" xmlns="http://www.w3.org/2000/svg" xmlns:xlink="http://www.w3.org/1999/xlink" viewBox="0 0 340.16 52.05"><defs><style>.cls-1{fill:#1D1D1D;}.cls-2{fill:#1D1D1D;}.cls-3{fill:#1D1D1D;}.cls-4{fill:#1D1D1D;}</style><linearGradient id="Degradado_sin_nombre_332" x1="12.96" y1="-749.98" x2="2.47" y2="-781.28" gradientTransform="translate(-230.1 747.78) rotate(21.14)" gradientUnits="userSpaceOnUse"><stop offset="0.11" stop-color="#deab45"/><stop offset="0.53" stop-color="#d38d25"/><stop offset="1" stop-color="#c04f21"/></linearGradient><linearGradient id="DEGRADADO_NARANJA_1" x1="-3.04" y1="-849.02" x2="-69.61" y2="-822.88" gradientTransform="translate(-259.56 802.12) rotate(22.93)" gradientUnits="userSpaceOnUse"><stop offset="0" stop-color="#deab45"/><stop offset="1" stop-color="#c56424"/></linearGradient></defs><path class="cls-1" d="M39,37.89,38,51.8,68.78,14.9,50.39,22.57A18.2,18.2,0,0,0,39,37.89Z"/><path class="cls-2" d="M17,21.78,0,8.25l68.28,6.64L40.89,25.37A24.54,24.54,0,0,1,17,21.78Z"/><path class="cls-3" d="M73.63,21.77c0-6.46,5.65-12.2,13.54-12.2A17.23,17.23,0,0,1,95,11.52l-2.29,4.56A13,13,0,0,0,87.6,15c-5.74,0-7.32,4.43-7.32,6.78s1.58,6.77,7.32,6.77a13.31,13.31,0,0,0,5.13-1.08L95,32A17.23,17.23,0,0,1,87.17,34C79.28,34,73.63,28.22,73.63,21.77Z"/><path class="cls-3" d="M107.61,9.57c7.18,0,13,4.93,13,12.2S114.74,34,107.61,34s-13-5-13-12.19S100.39,9.57,107.61,9.57Zm-6.36,12.2c0,3.88,2.58,6.77,6.36,6.77S114,25.65,114,21.77,111.3,15,107.61,15,101.25,17.75,101.25,21.77Z"/><path class="cls-3" d="M128,10l1.06,3.11s2-3.57,7.27-3.57c4.6,0,9.34,2.35,9.34,9.8V33.51H139V19.69c0-2.76-1.91-4.2-4.4-4.2a4.83,4.83,0,0,0-5,5.06v13h-6.7V10Z"/><path class="cls-3" d="M147.82,31.88l2-4.42A18.62,18.62,0,0,0,156.63,29c3.4,0,4.5-1.13,4.5-2.17,0-3.7-13.21-1.36-13.21-10.12,0-4.42,3.73-7.18,9.57-7.18a23.54,23.54,0,0,1,8.86,1.86l-2,4.38a19.42,19.42,0,0,0-6.47-1.36c-2.77,0-3.83,1.18-3.83,2.21,0,3.62,13.17,1.4,13.17,10.07,0,4.57-4,7.23-10.34,7.23A20.59,20.59,0,0,1,147.82,31.88Z"/><path class="cls-3" d="M181,9.57c7.19,0,13,4.93,13,12.2S188.13,34,181,34s-13-5-13-12.19S173.77,9.57,181,9.57Zm-6.36,12.2c0,3.88,2.58,6.77,6.36,6.77s6.37-2.89,6.37-6.77S184.68,15,181,15,174.63,17.75,174.63,21.77Z"/><path class="cls-3" d="M215.46,10V33.51H209V15.4l-2.92-1V10Zm-.05-6.55A3.66,3.66,0,0,1,211.68,7a3.5,3.5,0,0,1-3.59-3.47A3.53,3.53,0,0,1,211.68,0,3.66,3.66,0,0,1,215.41,3.48Z"/><path class="cls-3" d="M243,.45V33.51h-5.12l-.81-3C235.37,33,232.5,34,229.58,34c-7.18,0-11.82-5.78-11.82-12.19s4.69-12.2,11.73-12.2c2.87,0,5.64.95,7.13,2.8V6.5a6.24,6.24,0,0,1,6.41-6ZM224.27,21.72c0,4.29,2.77,6.82,6.46,6.82a6.46,6.46,0,0,0,6.61-6.77A6.47,6.47,0,0,0,230.68,15C227,15,224.27,17.52,224.27,21.72Z"/><path class="cls-3" d="M256.77,9.57c6.18,0,9.67,2.71,9.67,7.82v9.75c0,.63.34.81,1.05.81.39,0,1.2,0,2.21-.13v4.92a11.68,11.68,0,0,1-4,.77c-1.58,0-4.21-.5-4.21-3.07v-.5a9,9,0,0,1-7.75,4c-4.55,0-9-2.66-9-7.63s4.59-7.5,10.29-7.5a48.32,48.32,0,0,1,5.17.32v-.68c0-3.43-2.49-3.88-4.5-3.88a43.36,43.36,0,0,0-7.52.9L247,11.11A36.84,36.84,0,0,1,256.77,9.57Zm-.52,13.23c-2.16,0-5.46.5-5.46,3.26,0,2.07,1.91,3.25,4.07,3.25,2.48,0,5.36-1.63,5.36-3.8V23.17A29,29,0,0,0,256.25,22.8Z"/><path class="cls-3" d="M295.07.45V33.51h-5.13l-.81-3C287.41,33,284.54,34,281.62,34c-7.19,0-11.83-5.78-11.83-12.19s4.69-12.2,11.73-12.2c2.87,0,5.65.95,7.13,2.8V6.5a6.24,6.24,0,0,1,6.42-6ZM276.3,21.72c0,4.29,2.78,6.82,6.46,6.82a6.46,6.46,0,0,0,6.61-6.77A6.47,6.47,0,0,0,282.71,15C279,15,276.3,17.52,276.3,21.72Z"/><path class="cls-3" d="M310.29,9.57c7.18,0,13,4.93,13,12.2S317.42,34,310.29,34s-13-5-13-12.19S303.06,9.57,310.29,9.57Zm-6.37,12.2c0,3.88,2.59,6.77,6.37,6.77s6.36-2.89,6.36-6.77S314,15,310.29,15,303.92,17.75,303.92,21.77Z"/><path class="cls-3" d="M330.78,10.25l.86,3.7c1.53-3,4.11-3.92,8.52-3.92v6.41h-.82c-4.21,0-7.22,1.53-7.22,6.59V33.51h-6.61V10.25Z"/><path class="cls-3" d="M196.27,6.64V28.72c0,2.76,1.62,4.79,4.93,4.79.46,0,1,0,1.44-.09V.47A6.36,6.36,0,0,0,196.27,6.64Z"/><path class="cls-4" d="M278.5,40l.26,1.46a3.1,3.1,0,0,1,2.84-1.64,3.06,3.06,0,0,1,2.95,1.85,3.48,3.48,0,0,1,3-1.85c2.38,0,3.55,1.26,3.55,3.5v5.73h-1.54V43.33a2,2,0,0,0-2.17-2.09A2.36,2.36,0,0,0,285,43.69v5.4h-1.51V43.26a2,2,0,0,0-2.18-2,2.36,2.36,0,0,0-2.41,2.43v5.42h-1.53V40Z"/><path class="cls-4" d="M299.91,39.86a4.34,4.34,0,0,1,4.39,4.56,4.74,4.74,0,0,1-.05.73h-7.47A3.17,3.17,0,0,0,300.21,48a7.86,7.86,0,0,0,2.9-.61l.51,1.1a8.37,8.37,0,0,1-3.45.78,4.72,4.72,0,0,1-5-4.66A4.64,4.64,0,0,1,299.91,39.86ZM302.86,44A2.78,2.78,0,0,0,300,41.13,3.16,3.16,0,0,0,296.78,44Z"/><path class="cls-4" d="M308.91,40l2.68,3.56L314.3,40H316l-3.47,4.5,3.58,4.55h-1.76l-2.74-3.62-2.79,3.62h-1.75l3.58-4.55L307.14,40Z"/><path class="cls-4" d="M318.71,51.09a2.26,2.26,0,0,0,1.4-1.81v-8L319,41.05V40h2.6v8.52a3.45,3.45,0,0,1-2.41,3.49Z"/><path class="cls-4" d="M329.92,39.86c2.35,0,3.69.91,3.69,2.94v4.65c0,.31.24.38.52.38s.51,0,.72,0v1.11a5.28,5.28,0,0,1-1.35.2A1.05,1.05,0,0,1,332.3,48v-.27a3.42,3.42,0,0,1-3.19,1.58c-2,0-3.54-1-3.54-2.94s1.86-2.77,4.06-2.77a16,16,0,0,1,2.54.25V43c0-1.55-1.05-1.94-2.49-1.94a13,13,0,0,0-2.88.37l-.31-1A11.74,11.74,0,0,1,329.92,39.86Zm-.15,4.82c-1.18,0-2.8.21-2.8,1.64,0,1.18,1.14,1.77,2.29,1.77,1.55,0,2.91-1.07,2.91-2.29v-.86A10.9,10.9,0,0,0,329.77,44.68Z"/><path class="cls-4" d="M338.65,36.35V47.66a1.31,1.31,0,0,0,1.4,1.43h.11V36.35Z"/></svg>
