<svg xmlns="http://www.w3.org/2000/svg" width="9.999" height="16" viewBox="0 0 9.999 16"><defs><style>.a{fill:#fff;}</style></defs><path class="a" d="M106,14.9c-.015-.05-.362-1.232-.677-2.028a.333.333,0,0,0-.215-.2.327.327,0,0,0-.287.047,1.561,1.561,0,0,1-1.533.133,1.236,1.236,0,0,1-.608-1.191V7.333h2.333A.333.333,0,0,0,105.351,7V4.333A.333.333,0,0,0,105.017,4h-2.333V.333A.333.333,0,0,0,102.351,0H99.684a.333.333,0,0,0-.333.333c0,2.48-1.584,4.333-3,4.333A.333.333,0,0,0,96.018,5V7a.333.333,0,0,0,.333.333h2.333v5c0,2.333,1.458,3.666,4,3.666a6.811,6.811,0,0,0,3.165-.711A.333.333,0,0,0,106,14.9Z" transform="translate(-96.018)"/></svg>