<svg id="Capa_1" data-name="Capa 1" xmlns="http://www.w3.org/2000/svg" xmlns:xlink="http://www.w3.org/1999/xlink" viewBox="0 0 340.16 85.62"><defs><style>.cls-1{fill:#fff;}.cls-2{fill:#fff;}.cls-3{fill:#fff;}.cls-4{fill:#fff;}.cls-5{fill:#fff;}</style><linearGradient id="DEGRADADO_AZUL_2" x1="-77.32" y1="-435" x2="-94.91" y2="-487.49" gradientTransform="matrix(0.96, 0.27, -0.27, 0.96, 48.76, 525.06)" gradientUnits="userSpaceOnUse"><stop offset="0.02" stop-color="#5b94c7"/><stop offset="0.25" stop-color="#4f82ba"/><stop offset="0.48" stop-color="#446ba9"/><stop offset="0.75" stop-color="#395a92"/><stop offset="1" stop-color="#294371"/></linearGradient><linearGradient id="Degradado_sin_nombre_2" x1="-100.48" y1="-555.49" x2="-206.03" y2="-514.05" gradientTransform="translate(41.03 586.18) rotate(17.24)" gradientUnits="userSpaceOnUse"><stop offset="0" stop-color="#77b5dd"/><stop offset="0.5" stop-color="#669fcf"/><stop offset="1" stop-color="#5589bf"/></linearGradient></defs><path class="cls-1" d="M123.66,18.72l1.81,5.59v.09c1.81-3.7,7.07-6.5,11.68-6.5s10.19,3,12.17,7.65c2.13-4.19,6.74-7.65,13.81-7.65,8.8,0,15.7,5.43,15.7,17.84V61.48H167.32V36c0-3.53-1.72-7.32-6.9-7.32-5.51,0-7.9,4.36-7.9,9.13V61.48H141.18V35.41a6.46,6.46,0,0,0-6.83-6.74c-5.51,0-8,4.36-8,9V61.48H114.87V18.72Z"/><path class="cls-1" d="M202,17.9c13.24,0,19.66,10.28,19.66,21.63a27.91,27.91,0,0,1-.41,4.93h-28.7c.49,6.08,5.75,8.39,10.85,8.39a29.56,29.56,0,0,0,4.38-.34,10.74,10.74,0,0,1,11.49,6.09h0c-4.27,2.47-10.36,3.7-16.11,3.7-12.91,0-22.37-8.71-22.37-21.79S189.31,17.9,202,17.9Zm9,18.67c-.25-4.69-2.06-8.8-8.31-8.8-5.34,0-9.21,3-10.28,8.8Z"/><path class="cls-1" d="M233.38,18.72l8.22,13.9h.17L250,18.72h13.24L248.92,40.18l14.39,21.3H250.07l-8.3-13.73h-.17l-8.3,13.73H220.06l14.55-21.3L220.06,18.72Z"/><path class="cls-2" d="M261.86,68c.49-.32,7.65-3.86,7.65-9.37V28.51L264,26.78h0a8.06,8.06,0,0,1,8.06-8.06h8.79V56.55c0,15.12-14.22,18.66-15.12,18.91Z"/><path class="cls-2" d="M304.45,17.9c10.61,0,16.61,4.93,16.61,14.23V49.89c0,1.15.57,1.48,1.81,1.48.65,0,2.05-.09,3.78-.25v9a19,19,0,0,1-6.82,1.4c-2.72,0-7.24-.9-7.24-5.59V55a15.28,15.28,0,0,1-13.32,7.32c-7.81,0-15.46-4.85-15.46-13.89,0-9.21,7.9-13.65,17.68-13.65a77.63,77.63,0,0,1,8.88.57V34.1c0-6.25-4.28-7.07-7.73-7.07a45.73,45.73,0,0,0-5.24.37,9,9,0,0,1-9.72-6.7h0A59.66,59.66,0,0,1,304.45,17.9ZM303.54,42c-3.7,0-9.37.91-9.37,5.92,0,3.79,3.29,5.92,7,5.92,4.28,0,9.21-3,9.21-6.9V42.65A46.75,46.75,0,0,0,303.54,42Z"/><path class="cls-2" d="M329,12.56v40.2c0,5,2.79,8.72,8.47,8.72a22.29,22.29,0,0,0,2.66-.18V1.3A11.26,11.26,0,0,0,329,12.56Z"/><path class="cls-3" d="M66.48,62.2l.73,23.42L109.6,19.08,81.87,34.8A30.38,30.38,0,0,0,66.48,62.2Z"/><path class="cls-4" d="M29,38.72,0,18.77l108.82.38L67.35,41A37.15,37.15,0,0,1,29,38.72Z"/><path class="cls-5" d="M126.86,1.17l-1.09,1.48a6,6,0,0,0-3-.82A5.37,5.37,0,0,0,117,7.31a4,4,0,0,0,4.19,4.15,6.75,6.75,0,0,0,3.11-.83l.7,1.55a8.34,8.34,0,0,1-4.15,1.11,5.9,5.9,0,0,1-6-6C114.87,3.17,118.2,0,123,0A6.4,6.4,0,0,1,126.86,1.17Z"/><path class="cls-5" d="M132.47,7.35A7.46,7.46,0,0,1,140,0a5.77,5.77,0,0,1,6,5.94,7.31,7.31,0,0,1-7.37,7.35A5.88,5.88,0,0,1,132.47,7.35ZM143.84,6a3.94,3.94,0,0,0-4.1-4.17,5.32,5.32,0,0,0-5.14,5.5,3.93,3.93,0,0,0,4.11,4.17A5.34,5.34,0,0,0,143.84,6Z"/><path class="cls-5" d="M160.85.17a3.38,3.38,0,0,1,3.44,3.31c0,2.37-1.45,3.57-3.35,4.15l2.16,5.5h-2.22L159,7.85h-3.17l-.93,5.28h-2l2.31-13ZM156.14,6H160a2.28,2.28,0,0,0,2.27-2.26A1.61,1.61,0,0,0,160.68,2h-3.8Z"/><path class="cls-5" d="M178.8.17a3.48,3.48,0,0,1,3.35,3.61A4.36,4.36,0,0,1,177.5,8.2h-3.68l-.89,4.93h-2l2.32-13Zm-4.63,6.2h3.63a2.56,2.56,0,0,0,2.31-2.48A1.79,1.79,0,0,0,178.39,2h-3.46Z"/><path class="cls-5" d="M188.7,7.35A7.47,7.47,0,0,1,196.22,0a5.76,5.76,0,0,1,6,5.94,7.31,7.31,0,0,1-7.37,7.35A5.89,5.89,0,0,1,188.7,7.35ZM200.07,6A3.94,3.94,0,0,0,196,1.81a5.33,5.33,0,0,0-5.15,5.5,3.93,3.93,0,0,0,4.11,4.17A5.34,5.34,0,0,0,200.07,6Z"/><path class="cls-5" d="M217.08.17a3.38,3.38,0,0,1,3.44,3.31c0,2.37-1.44,3.57-3.35,4.15l2.17,5.5h-2.23l-1.92-5.28H212l-.92,5.28h-2l2.31-13ZM212.37,6h3.82a2.29,2.29,0,0,0,2.28-2.26A1.61,1.61,0,0,0,216.91,2h-3.8Z"/><path class="cls-5" d="M234.9,0l2.56,13.13h-2l-.69-3.41h-5l-1.83,3.41h-2.26L232.83,0Zm-4.33,8.07h4l-1-6Z"/><path class="cls-5" d="M255,.17l-.37,1.9h-4.2l-2,11.06h-2l2-11.06h-4.22l.36-1.9Z"/><path class="cls-5" d="M271.57.17l-.31,1.9h-7l-.67,3.82h6l-.35,1.83h-6l-.61,3.52h7.2l-.35,1.89h-9.24l2.32-13Z"/></svg>
