<svg id="Capa_1" data-name="Capa 1" xmlns="http://www.w3.org/2000/svg" xmlns:xlink="http://www.w3.org/1999/xlink" viewBox="0 0 340.16 85.17"><defs><style>.cls-1{fill:#1D1D1D;}.cls-2{fill:#1D1D1D;}.cls-3{fill:#1D1D1D;}.cls-4{fill:#1D1D1D;}.cls-5{fill:#1D1D1D;}</style><linearGradient id="DEGRADADO_AZUL_2" x1="-10.74" y1="-439.05" x2="-28.33" y2="-491.54" gradientTransform="matrix(0.96, 0.27, -0.27, 0.96, -16.49, 510.78)" gradientUnits="userSpaceOnUse"><stop offset="0.02" stop-color="#5b94c7"/><stop offset="0.25" stop-color="#4f82ba"/><stop offset="0.48" stop-color="#446ba9"/><stop offset="0.75" stop-color="#395a92"/><stop offset="1" stop-color="#294371"/></linearGradient><linearGradient id="Degradado_sin_nombre_2" x1="-26.35" y1="-561.12" x2="-131.89" y2="-519.69" gradientTransform="translate(-31.45 569.15) rotate(17.24)" gradientUnits="userSpaceOnUse"><stop offset="0" stop-color="#77b5dd"/><stop offset="0.5" stop-color="#669fcf"/><stop offset="1" stop-color="#5589bf"/></linearGradient></defs><path class="cls-1" d="M123.66,18.28l1.81,5.59V24c1.81-3.71,7.07-6.5,11.68-6.5s10.19,3,12.17,7.65c2.13-4.2,6.74-7.65,13.81-7.65,8.8,0,15.7,5.43,15.7,17.84V61H167.32V35.55c0-3.54-1.72-7.32-6.9-7.32-5.51,0-7.9,4.36-7.9,9.13V61H141.18V35a6.45,6.45,0,0,0-6.83-6.74c-5.51,0-8,4.36-8,9.05V61H114.87V18.28Z"/><path class="cls-1" d="M202,17.46c13.24,0,19.66,10.28,19.66,21.62a28,28,0,0,1-.41,4.94h-28.7c.49,6.08,5.75,8.38,10.85,8.38a28.27,28.27,0,0,0,4.38-.34,10.75,10.75,0,0,1,11.49,6.1h0c-4.27,2.47-10.36,3.7-16.11,3.7-12.91,0-22.37-8.72-22.37-21.79S189.31,17.46,202,17.46Zm9,18.66c-.25-4.68-2.06-8.79-8.31-8.79-5.34,0-9.21,3-10.28,8.79Z"/><path class="cls-1" d="M233.38,18.28l8.22,13.9h.17L250,18.28h13.24L248.92,39.74,263.31,61H250.07l-8.3-13.73h-.17L233.3,61H220.06l14.55-21.3L220.06,18.28Z"/><path class="cls-2" d="M261.86,67.53c.49-.33,7.65-3.86,7.65-9.37V28.07L264,26.34h0a8.06,8.06,0,0,1,8.06-8.06h8.79V56.1c0,15.13-14.22,18.67-15.12,18.91Z"/><path class="cls-2" d="M304.45,17.46c10.61,0,16.61,4.93,16.61,14.22V49.44c0,1.15.57,1.48,1.81,1.48.65,0,2.05-.08,3.78-.24v9a19,19,0,0,1-6.82,1.4c-2.72,0-7.24-.91-7.24-5.59v-.91a15.28,15.28,0,0,1-13.32,7.32c-7.81,0-15.46-4.85-15.46-13.9,0-9.21,7.9-13.65,17.68-13.65a77.6,77.6,0,0,1,8.88.58V33.66c0-6.25-4.28-7.07-7.73-7.07a47.91,47.91,0,0,0-5.24.36,9,9,0,0,1-9.72-6.7h0A60,60,0,0,1,304.45,17.46Zm-.91,24.09c-3.7,0-9.37.9-9.37,5.92,0,3.78,3.29,5.92,7,5.92,4.28,0,9.21-3,9.21-6.91V42.21A46.75,46.75,0,0,0,303.54,41.55Z"/><path class="cls-2" d="M329,12.11V52.32c0,5,2.79,8.72,8.47,8.72a22.29,22.29,0,0,0,2.66-.18V.86A11.25,11.25,0,0,0,329,12.11Z"/><path class="cls-3" d="M66.48,61.76l.73,23.41L109.6,18.64,81.87,34.35A30.4,30.4,0,0,0,66.48,61.76Z"/><path class="cls-4" d="M29,38.28l-29-20,108.82.38L67.35,40.54A37.15,37.15,0,0,1,29,38.28Z"/><path class="cls-5" d="M126.86,1.13l-1,1.43a7.6,7.6,0,0,0-3.39-.79,5.2,5.2,0,0,0-5.53,5.3,3.82,3.82,0,0,0,4,4,5.49,5.49,0,0,0,3.31-1l.43-2.38h-3.31l.26-1.57h5.12L126,10.7a7.62,7.62,0,0,1-5.3,2.15,5.68,5.68,0,0,1-5.79-5.78c0-4,3.22-7.07,7.84-7.07A7.42,7.42,0,0,1,126.86,1.13Z"/><path class="cls-5" d="M141.26.16a3.26,3.26,0,0,1,3.33,3.2c0,2.3-1.4,3.46-3.24,4l2.09,5.32h-2.15l-1.86-5.1h-3.06l-.9,5.1h-2L135.74.16Zm-4.55,5.62h3.69a2.21,2.21,0,0,0,2.2-2.18A1.57,1.57,0,0,0,141.09,2h-3.66Z"/><path class="cls-5" d="M155.05.16l-1.42,8.07a2.37,2.37,0,0,0,0,.45c0,1.27,1,2.2,2.63,2.2a3.51,3.51,0,0,0,3.54-2.65L161.24.16h1.92l-1.44,8A5.46,5.46,0,0,1,156,12.69c-2.79,0-4.38-1.56-4.4-3.69a4.33,4.33,0,0,1,.07-.8l1.4-8Z"/><path class="cls-5" d="M177,.16a3.38,3.38,0,0,1,3.24,3.49,4.22,4.22,0,0,1-4.49,4.28h-3.56l-.86,4.76h-2L171.58.16Zm-4.47,6H176a2.47,2.47,0,0,0,2.23-2.4A1.73,1.73,0,0,0,176.59,2h-3.35Z"/><path class="cls-5" d="M186.55,7.11A7.22,7.22,0,0,1,193.82,0a5.57,5.57,0,0,1,5.76,5.75,7.07,7.07,0,0,1-7.12,7.1A5.69,5.69,0,0,1,186.55,7.11Zm11-1.33a3.81,3.81,0,0,0-4-4,5.15,5.15,0,0,0-5,5.32,3.8,3.8,0,0,0,4,4A5.16,5.16,0,0,0,197.54,5.78Z"/></svg>
