<svg id="Capa_1" data-name="Capa 1" xmlns="http://www.w3.org/2000/svg" xmlns:xlink="http://www.w3.org/1999/xlink" viewBox="0 0 340.16 66.77"><defs><style>.cls-1{fill:#1D1D1D;}.cls-2{fill:#1D1D1D;}.cls-3{fill:#1D1D1D;}.cls-4{fill:#1D1D1D;}</style><linearGradient id="DEGRADADO_VERDE_2" x1="129" y1="-779.04" x2="115.84" y2="-818.3" gradientTransform="translate(-339.13 746.01) rotate(21.14)" gradientUnits="userSpaceOnUse"><stop offset="0" stop-color="#68a042"/><stop offset="0.51" stop-color="#4c8540"/><stop offset="1" stop-color="#396437"/></linearGradient><linearGradient id="DEGRADADO_VERDE_1" x1="120.51" y1="-892.62" x2="41.56" y2="-861.63" gradientTransform="translate(-377.63 798.36) rotate(22.93)" gradientUnits="userSpaceOnUse"><stop offset="0" stop-color="#9ab73f"/><stop offset="1" stop-color="#4c8540"/></linearGradient></defs><path class="cls-1" d="M46.26,47.05,45.07,64.54,81.55,18.16,59.75,27.8A22.73,22.73,0,0,0,46.26,47.05Z"/><path class="cls-2" d="M20.12,26.8,0,9.8l81,8.35L48.48,31.32A27.76,27.76,0,0,1,20.12,26.8Z"/><path class="cls-3" d="M102.74,11.46c8.51,0,15.38,6.19,15.38,15.33a15,15,0,0,1-15.38,15.32c-8.52,0-15.38-6.24-15.38-15.32S94.17,11.46,102.74,11.46ZM95.19,26.79c0,4.88,3.06,8.51,7.55,8.51,4.31,0,7.55-3.63,7.55-8.51,0-5.05-3.18-8.51-7.55-8.51S95.19,21.74,95.19,26.79Z"/><path class="cls-3" d="M150.75,26.9c0,8.06-4.88,15.21-14,15.21-2,0-6.41-1.08-8.34-4.31v5.79a7.6,7.6,0,0,1-7.6,7.6h0V12H127l1.36,4a10.73,10.73,0,0,1,8.4-4.6C145.48,11.46,150.75,18.11,150.75,26.9Zm-23.15-.11c0,5,3,8.51,7.83,8.51,4.14,0,7.6-3.46,7.6-8.51s-3.46-8.51-7.6-8.51S127.6,21.34,127.6,26.79Z"/><path class="cls-3" d="M166.65,11.46c9.13,0,13.56,7.1,13.56,14.93a19.48,19.48,0,0,1-.28,3.41H160.12c.34,4.2,4,5.79,7.49,5.79A21.46,21.46,0,0,0,176,33.83l2.61,5.73a23.33,23.33,0,0,1-11.12,2.55c-8.91,0-15.44-6-15.44-15S157.91,11.46,166.65,11.46Zm6.18,12.89c-.17-3.24-1.42-6.07-5.73-6.07-3.69,0-6.36,2.1-7.09,6.07Z"/><path class="cls-3" d="M188.84,12.32l1,4.65C191.68,13.22,194.74,12,200,12v8.06h-1c-5,0-8.57,1.93-8.57,8.29V41.55H182.6V12.32Z"/><path class="cls-3" d="M213,11.46c7.32,0,11.47,3.41,11.47,9.82V33.54c0,.8.39,1,1.25,1,.45,0,1.41-.05,2.61-.17v6.19a13.18,13.18,0,0,1-4.71,1c-1.88,0-5-.63-5-3.86v-.63a10.53,10.53,0,0,1-9.19,5c-5.4,0-10.67-3.35-10.67-9.59s5.45-9.42,12.2-9.42a53.19,53.19,0,0,1,6.13.4v-.85c0-4.32-3-4.89-5.34-4.89a49.18,49.18,0,0,0-8.91,1.14l-1.42-5.51A41.7,41.7,0,0,1,213,11.46Zm-.62,16.63c-2.55,0-6.47.63-6.47,4.09,0,2.61,2.27,4.09,4.82,4.09,2.95,0,6.36-2.05,6.36-4.77V28.55A32,32,0,0,0,212.34,28.09Z"/><path class="cls-3" d="M258.37,0V41.55h-6.08l-1-3.75c-2,3.12-5.45,4.31-8.91,4.31-8.51,0-14-7.26-14-15.32S234,11.46,242.31,11.46c3.4,0,6.69,1.2,8.45,3.52V7.61A7.61,7.61,0,0,1,258.37,0ZM236.12,26.73c0,5.39,3.29,8.57,7.66,8.57,4.83,0,7.83-3.86,7.83-8.51s-3-8.51-7.89-8.51C239.3,18.28,236.12,21.45,236.12,26.73Z"/><path class="cls-3" d="M276.42,11.46c8.51,0,15.38,6.19,15.38,15.33a15,15,0,0,1-15.38,15.32c-8.52,0-15.38-6.24-15.38-15.32S267.85,11.46,276.42,11.46Zm-7.55,15.33c0,4.88,3.06,8.51,7.55,8.51,4.31,0,7.54-3.63,7.54-8.51,0-5.05-3.17-8.51-7.54-8.51S268.87,21.74,268.87,26.79Z"/><path class="cls-3" d="M300.71,12.32l1,4.65c1.82-3.75,4.88-4.94,10.1-4.94v8.06h-1c-5,0-8.57,1.93-8.57,8.29V41.55h-7.83V12.32Z"/><path class="cls-3" d="M324.83,11.46c7.32,0,11.47,3.41,11.47,9.82V33.54c0,.8.4,1,1.25,1,.45,0,1.41-.05,2.61-.17v6.19a13.18,13.18,0,0,1-4.71,1c-1.88,0-5-.63-5-3.86v-.63a10.53,10.53,0,0,1-9.19,5c-5.4,0-10.67-3.35-10.67-9.59s5.44-9.42,12.2-9.42a53,53,0,0,1,6.13.4v-.85c0-4.32-2.95-4.89-5.34-4.89a49.18,49.18,0,0,0-8.91,1.14l-1.41-5.51A41.56,41.56,0,0,1,324.83,11.46Zm-.62,16.63c-2.55,0-6.47.63-6.47,4.09,0,2.61,2.27,4.09,4.82,4.09,2.95,0,6.36-2.05,6.36-4.77V28.55A32,32,0,0,0,324.21,28.09Z"/><path class="cls-4" d="M263.44,50.93l.32,1.93a4,4,0,0,1,7.21.27,4.3,4.3,0,0,1,3.76-2.43c3,0,4.41,1.65,4.41,4.61v7.55h-1.91V55.27a2.5,2.5,0,0,0-2.71-2.76,3,3,0,0,0-3,3.24v7.11h-1.88V55.17a2.53,2.53,0,0,0-2.71-2.66,3,3,0,0,0-3,3.22v7.13H262V50.93Z"/><path class="cls-4" d="M290.08,50.7c3.54,0,5.47,3,5.47,6a6.06,6.06,0,0,1-.07,1h-9.3a4,4,0,0,0,4.27,3.74,9.26,9.26,0,0,0,3.6-.81l.65,1.45a9.89,9.89,0,0,1-4.3,1,6,6,0,0,1-6.19-6.15A5.94,5.94,0,0,1,290.08,50.7Zm3.67,5.51c0-1.91-1.17-3.84-3.55-3.84a4,4,0,0,0-4,3.84Z"/><path class="cls-4" d="M301.28,50.93l3.33,4.7,3.38-4.7h2.13l-4.32,5.94,4.46,6h-2.18l-3.42-4.77-3.47,4.77H299l4.45-6-4.38-5.94Z"/><path class="cls-4" d="M313.47,65.5a2.91,2.91,0,0,0,1.74-2.38V52.63l-1.33-.37V50.93h3.24V62.18a4.51,4.51,0,0,1-3,4.59Z"/><path class="cls-4" d="M327.42,50.7c2.92,0,4.59,1.19,4.59,3.88v6.13c0,.41.3.5.65.5s.64,0,.89-.07v1.47a6.7,6.7,0,0,1-1.68.25,1.34,1.34,0,0,1-1.49-1.49V61a4.18,4.18,0,0,1-4,2.09c-2.45,0-4.4-1.28-4.4-3.88s2.31-3.65,5.05-3.65a19.9,19.9,0,0,1,3.16.33V54.83c0-2-1.31-2.55-3.1-2.55a15.68,15.68,0,0,0-3.58.48l-.39-1.35A13.87,13.87,0,0,1,327.42,50.7Zm-.18,6.36c-1.47,0-3.49.27-3.49,2.15,0,1.57,1.42,2.35,2.85,2.35,1.92,0,3.62-1.43,3.62-3V57.4A13,13,0,0,0,327.24,57.06Z"/><path class="cls-4" d="M338.28,46.06V61A1.69,1.69,0,0,0,340,62.86h.14V46.06Z"/></svg>
